<svg xmlns="http://www.w3.org/2000/svg" xmlns:xlink="http://www.w3.org/1999/xlink" width="50" zoomAndPan="magnify" viewBox="0 0 37.5 37.499999" height="50" preserveAspectRatio="xMidYMid meet" version="1.0"><defs><clipPath id="b71ae48e9a"><path d="M 20.179688 11.101562 L 37.007812 11.101562 L 37.007812 28.351562 L 20.179688 28.351562 Z M 20.179688 11.101562 " clip-rule="nonzero"/></clipPath><clipPath id="4c7fe13ecf"><path d="M 28.804688 11.101562 C 24.039062 11.101562 20.179688 14.960938 20.179688 19.726562 C 20.179688 24.488281 24.039062 28.351562 28.804688 28.351562 C 33.566406 28.351562 37.429688 24.488281 37.429688 19.726562 C 37.429688 14.960938 33.566406 11.101562 28.804688 11.101562 " clip-rule="nonzero"/></clipPath></defs><g clip-path="url(#b71ae48e9a)"><g clip-path="url(#4c7fe13ecf)"><path stroke-linecap="butt" transform="matrix(0.746955, 0, 0, 0.746955, 20.177758, 11.099999)" fill="none" stroke-linejoin="miter" d="M 11.549459 0.00209337 C 5.169391 0.00209337 0.0025825 5.168902 0.0025825 11.54897 C 0.0025825 17.923808 5.169391 23.095847 11.549459 23.095847 C 17.924297 23.095847 23.096336 17.923808 23.096336 11.54897 C 23.096336 5.168902 17.924297 0.00209337 11.549459 0.00209337 " stroke="#000000" stroke-width="2" stroke-opacity="1" stroke-miterlimit="4"/></g></g><path stroke-linecap="butt" transform="matrix(0.753446, 0, 0, 0.75, 0.0000005, 19.724491)" fill="none" stroke-linejoin="miter" d="M -0.000000663618 0.497554 L 40.31479 0.497554 " stroke="#000000" stroke-width="1" stroke-opacity="1" stroke-miterlimit="4"/><path stroke-linecap="round" transform="matrix(0.753446, 0, 0, 0.75, 30.750355, 20.099491)" fill="none" stroke-linejoin="round" d="M -2.499408 -1.502447 L -0.498185 -0.00244685 L -2.499408 1.497553 " stroke="#000000" stroke-width="1" stroke-opacity="1" stroke-miterlimit="4"/></svg>