<svg xmlns="http://www.w3.org/2000/svg" xmlns:xlink="http://www.w3.org/1999/xlink" width="50" zoomAndPan="magnify" viewBox="0 0 37.5 37.499999" height="50" preserveAspectRatio="xMidYMid meet" version="1.0"><defs><clipPath id="bdb84f854c"><path d="M 1.125 1.125 L 36.375 1.125 L 36.375 36.375 L 1.125 36.375 Z M 1.125 1.125 " clip-rule="nonzero"/></clipPath><clipPath id="d4d0f2b673"><path d="M 18.75 1.125 C 9.015625 1.125 1.125 9.015625 1.125 18.75 C 1.125 28.484375 9.015625 36.375 18.75 36.375 C 28.484375 36.375 36.375 28.484375 36.375 18.75 C 36.375 9.015625 28.484375 1.125 18.75 1.125 " clip-rule="nonzero"/></clipPath><clipPath id="deafe06e49"><path d="M 6.945312 7 L 30.6875 7 L 30.6875 30.4375 L 6.945312 30.4375 Z M 6.945312 7 " clip-rule="nonzero"/></clipPath></defs><g clip-path="url(#bdb84f854c)"><g clip-path="url(#d4d0f2b673)"><path fill="#7b7ef1" d="M 1.125 1.125 L 36.375 1.125 L 36.375 36.375 L 1.125 36.375 Z M 1.125 1.125 " fill-opacity="1" fill-rule="nonzero"/></g></g><g clip-path="url(#deafe06e49)"><path fill="#e2e5fa" d="M 22.296875 18.460938 C 23.878906 17.316406 24.921875 15.46875 24.921875 13.375 C 24.921875 9.90625 22.101562 7.085938 18.636719 7.085938 C 15.167969 7.085938 12.347656 9.90625 12.347656 13.375 C 12.347656 15.46875 13.390625 17.316406 14.972656 18.460938 C 10.324219 20.003906 6.957031 24.382812 6.957031 29.542969 C 6.957031 30.035156 7.359375 30.4375 7.855469 30.4375 L 29.414062 30.4375 C 29.910156 30.4375 30.3125 30.035156 30.3125 29.542969 C 30.3125 24.382812 26.945312 20.003906 22.296875 18.460938 Z M 14.144531 13.375 C 14.144531 10.894531 16.160156 8.882812 18.636719 8.882812 C 21.109375 8.882812 23.125 10.894531 23.125 13.375 C 23.125 15.851562 21.109375 17.863281 18.636719 17.863281 C 16.160156 17.863281 14.144531 15.851562 14.144531 13.375 Z M 8.792969 28.644531 C 9.25 23.613281 13.488281 19.660156 18.636719 19.660156 C 23.78125 19.660156 28.019531 23.613281 28.476562 28.644531 Z M 8.792969 28.644531 " fill-opacity="1" fill-rule="nonzero"/></g></svg>