<svg xmlns="http://www.w3.org/2000/svg" xmlns:xlink="http://www.w3.org/1999/xlink" width="50" zoomAndPan="magnify" viewBox="0 0 37.5 37.499999" height="50" preserveAspectRatio="xMidYMid meet" version="1.0"><defs><clipPath id="50fc3b8233"><path d="M 2 1 L 34 1 L 34 36.808594 L 2 36.808594 Z M 2 1 " clip-rule="nonzero"/></clipPath></defs><g clip-path="url(#50fc3b8233)"><path fill="#5f6977" d="M 27.875 36.808594 C 27.632812 36.808594 27.390625 36.792969 27.152344 36.761719 C 26.910156 36.734375 26.671875 36.6875 26.433594 36.628906 C 26.199219 36.570312 25.96875 36.496094 25.742188 36.40625 C 25.515625 36.320312 25.292969 36.21875 25.078125 36.105469 C 24.863281 35.988281 24.65625 35.859375 24.457031 35.71875 C 24.257812 35.578125 24.070312 35.425781 23.886719 35.261719 C 23.707031 35.097656 23.535156 34.925781 23.378906 34.738281 C 23.21875 34.554688 23.070312 34.359375 22.933594 34.15625 C 22.796875 33.953125 22.675781 33.742188 22.5625 33.523438 C 22.453125 33.304688 22.355469 33.082031 22.273438 32.851562 C 22.1875 32.621094 22.121094 32.382812 22.0625 32.144531 C 22.007812 31.90625 21.96875 31.664062 21.941406 31.421875 C 21.917969 31.175781 21.90625 30.929688 21.910156 30.6875 C 21.914062 30.441406 21.933594 30.195312 21.964844 29.953125 C 22 29.710938 22.046875 29.46875 22.109375 29.230469 C 22.171875 28.996094 22.25 28.761719 22.339844 28.535156 L 13.128906 23.003906 C 12.871094 23.324219 12.582031 23.609375 12.265625 23.871094 C 11.945312 24.128906 11.605469 24.351562 11.242188 24.539062 C 10.878906 24.726562 10.5 24.875 10.109375 24.984375 C 9.714844 25.09375 9.3125 25.164062 8.90625 25.1875 C 8.5 25.214844 8.09375 25.199219 7.691406 25.144531 C 7.285156 25.085938 6.890625 24.988281 6.507812 24.847656 C 6.125 24.707031 5.757812 24.53125 5.410156 24.316406 C 5.0625 24.101562 4.738281 23.851562 4.441406 23.570312 C 4.144531 23.289062 3.878906 22.980469 3.640625 22.640625 C 3.40625 22.304688 3.207031 21.949219 3.046875 21.570312 C 2.882812 21.191406 2.761719 20.800781 2.679688 20.398438 C 2.597656 19.992188 2.554688 19.585938 2.554688 19.171875 C 2.554688 18.761719 2.597656 18.351562 2.679688 17.949219 C 2.761719 17.546875 2.882812 17.15625 3.046875 16.777344 C 3.207031 16.398438 3.40625 16.039062 3.640625 15.703125 C 3.878906 15.367188 4.144531 15.054688 4.441406 14.773438 C 4.738281 14.492188 5.0625 14.242188 5.410156 14.027344 C 5.757812 13.8125 6.125 13.636719 6.507812 13.496094 C 6.890625 13.359375 7.285156 13.261719 7.691406 13.203125 C 8.09375 13.144531 8.5 13.128906 8.90625 13.15625 C 9.3125 13.183594 9.714844 13.25 10.109375 13.359375 C 10.5 13.46875 10.878906 13.617188 11.242188 13.804688 C 11.605469 13.996094 11.945312 14.21875 12.265625 14.476562 C 12.582031 14.734375 12.871094 15.023438 13.128906 15.339844 L 22.433594 9.757812 C 22.34375 9.523438 22.265625 9.285156 22.207031 9.042969 C 22.144531 8.800781 22.101562 8.550781 22.070312 8.304688 C 22.042969 8.054688 22.027344 7.804688 22.027344 7.550781 C 22.027344 7.300781 22.042969 7.050781 22.074219 6.800781 C 22.109375 6.554688 22.15625 6.308594 22.214844 6.0625 C 22.277344 5.820312 22.355469 5.582031 22.445312 5.347656 C 22.539062 5.117188 22.644531 4.886719 22.761719 4.667969 C 22.882812 4.449219 23.015625 4.234375 23.160156 4.03125 C 23.304688 3.828125 23.464844 3.636719 23.632812 3.453125 C 23.804688 3.269531 23.984375 3.097656 24.171875 2.933594 C 24.363281 2.773438 24.5625 2.625 24.773438 2.488281 C 24.984375 2.355469 25.199219 2.230469 25.421875 2.121094 C 25.648438 2.015625 25.878906 1.921875 26.113281 1.839844 C 26.347656 1.761719 26.589844 1.695312 26.832031 1.648438 C 27.074219 1.597656 27.320312 1.5625 27.570312 1.546875 C 27.816406 1.527344 28.066406 1.523438 28.3125 1.535156 C 28.5625 1.550781 28.808594 1.578125 29.054688 1.621094 C 29.296875 1.664062 29.539062 1.722656 29.777344 1.796875 C 30.015625 1.871094 30.246094 1.960938 30.472656 2.066406 C 30.699219 2.167969 30.917969 2.285156 31.128906 2.417969 C 31.34375 2.546875 31.546875 2.691406 31.742188 2.847656 C 31.933594 3.003906 32.117188 3.171875 32.292969 3.351562 C 32.464844 3.53125 32.628906 3.722656 32.777344 3.921875 C 32.929688 4.121094 33.066406 4.332031 33.191406 4.546875 C 33.3125 4.765625 33.425781 4.988281 33.519531 5.222656 C 33.617188 5.453125 33.699219 5.6875 33.769531 5.929688 C 33.835938 6.171875 33.886719 6.417969 33.925781 6.664062 C 33.960938 6.914062 33.984375 7.164062 33.992188 7.414062 C 33.996094 7.664062 33.988281 7.914062 33.964844 8.164062 C 33.9375 8.414062 33.898438 8.664062 33.84375 8.90625 C 33.789062 9.152344 33.71875 9.394531 33.636719 9.628906 C 33.550781 9.867188 33.453125 10.09375 33.339844 10.320312 C 33.226562 10.542969 33.101562 10.757812 32.960938 10.964844 C 32.820312 11.175781 32.667969 11.371094 32.503906 11.5625 C 32.339844 11.75 32.164062 11.925781 31.980469 12.09375 C 31.792969 12.261719 31.597656 12.414062 31.394531 12.558594 C 31.1875 12.699219 30.976562 12.828125 30.753906 12.941406 C 30.535156 13.058594 30.308594 13.160156 30.074219 13.246094 C 29.839844 13.332031 29.601562 13.402344 29.359375 13.460938 C 29.117188 13.515625 28.875 13.558594 28.625 13.585938 C 28.378906 13.609375 28.132812 13.621094 27.882812 13.613281 C 27.632812 13.609375 27.386719 13.589844 27.140625 13.550781 C 26.894531 13.515625 26.652344 13.464844 26.414062 13.398438 C 26.171875 13.332031 25.9375 13.25 25.710938 13.152344 C 25.480469 13.054688 25.257812 12.945312 25.042969 12.820312 C 24.824219 12.695312 24.617188 12.558594 24.417969 12.40625 C 24.21875 12.257812 24.03125 12.09375 23.851562 11.917969 C 23.675781 11.746094 23.507812 11.558594 23.351562 11.363281 L 14.066406 16.929688 C 14.351562 17.648438 14.492188 18.394531 14.492188 19.167969 C 14.492188 19.941406 14.351562 20.6875 14.066406 21.40625 L 23.277344 26.9375 C 23.4375 26.742188 23.609375 26.558594 23.789062 26.386719 C 23.972656 26.214844 24.164062 26.054688 24.367188 25.90625 C 24.570312 25.753906 24.78125 25.621094 25 25.5 C 25.21875 25.375 25.445312 25.269531 25.675781 25.175781 C 25.910156 25.082031 26.148438 25.003906 26.390625 24.941406 C 26.632812 24.878906 26.878906 24.832031 27.125 24.800781 C 27.375 24.769531 27.625 24.753906 27.875 24.753906 C 28.125 24.753906 28.375 24.769531 28.621094 24.800781 C 28.871094 24.832031 29.113281 24.878906 29.359375 24.941406 C 29.601562 25.003906 29.835938 25.082031 30.070312 25.175781 C 30.304688 25.269531 30.527344 25.375 30.75 25.496094 C 30.96875 25.621094 31.179688 25.753906 31.378906 25.902344 C 31.582031 26.050781 31.777344 26.210938 31.957031 26.386719 C 32.140625 26.558594 32.3125 26.742188 32.472656 26.9375 C 32.628906 27.132812 32.777344 27.335938 32.910156 27.550781 C 33.046875 27.761719 33.167969 27.984375 33.273438 28.210938 C 33.378906 28.441406 33.472656 28.675781 33.546875 28.917969 C 33.625 29.15625 33.6875 29.402344 33.734375 29.648438 C 33.78125 29.898438 33.8125 30.148438 33.828125 30.398438 C 33.84375 30.652344 33.84375 30.90625 33.828125 31.15625 C 33.8125 31.410156 33.78125 31.660156 33.734375 31.90625 C 33.6875 32.15625 33.625 32.402344 33.550781 32.640625 C 33.472656 32.882812 33.378906 33.117188 33.273438 33.34375 C 33.167969 33.574219 33.046875 33.792969 32.914062 34.007812 C 32.777344 34.222656 32.632812 34.425781 32.472656 34.621094 C 32.3125 34.816406 32.144531 35 31.960938 35.171875 C 31.777344 35.34375 31.585938 35.507812 31.382812 35.65625 C 31.179688 35.804688 30.96875 35.9375 30.75 36.0625 C 30.53125 36.183594 30.304688 36.289062 30.074219 36.382812 C 29.839844 36.476562 29.601562 36.554688 29.359375 36.617188 C 29.117188 36.679688 28.871094 36.726562 28.625 36.757812 C 28.375 36.792969 28.128906 36.808594 27.875 36.808594 Z M 24.28125 28.726562 C 24.191406 28.882812 24.113281 29.046875 24.042969 29.214844 C 23.976562 29.386719 23.917969 29.558594 23.875 29.734375 C 23.828125 29.910156 23.792969 30.089844 23.769531 30.269531 C 23.746094 30.449219 23.734375 30.632812 23.734375 30.8125 C 23.738281 30.996094 23.75 31.175781 23.773438 31.355469 C 23.796875 31.539062 23.832031 31.714844 23.878906 31.890625 C 23.925781 32.066406 23.984375 32.238281 24.050781 32.410156 C 24.121094 32.578125 24.199219 32.738281 24.289062 32.898438 C 24.382812 33.054688 24.480469 33.207031 24.589844 33.351562 C 24.699219 33.496094 24.816406 33.632812 24.945312 33.761719 C 25.074219 33.890625 25.207031 34.011719 25.351562 34.125 C 25.492188 34.234375 25.640625 34.335938 25.796875 34.429688 C 25.953125 34.519531 26.113281 34.601562 26.28125 34.671875 C 26.445312 34.742188 26.617188 34.800781 26.789062 34.851562 C 26.964844 34.898438 27.140625 34.933594 27.320312 34.960938 C 27.5 34.984375 27.679688 35 27.859375 35 C 28.039062 35 28.21875 34.992188 28.398438 34.96875 C 28.574219 34.945312 28.753906 34.914062 28.925781 34.867188 C 29.101562 34.820312 29.273438 34.765625 29.441406 34.695312 C 29.609375 34.628906 29.769531 34.550781 29.925781 34.460938 C 30.085938 34.371094 30.234375 34.273438 30.378906 34.164062 C 30.523438 34.054688 30.660156 33.9375 30.789062 33.808594 C 30.917969 33.683594 31.039062 33.546875 31.152344 33.40625 C 31.261719 33.261719 31.367188 33.113281 31.457031 32.957031 C 31.550781 32.800781 31.632812 32.636719 31.703125 32.46875 C 31.777344 32.304688 31.835938 32.132812 31.886719 31.957031 C 31.9375 31.78125 31.972656 31.605469 32 31.421875 C 32.027344 31.242188 32.042969 31.0625 32.046875 30.878906 C 32.050781 30.699219 32.039062 30.515625 32.019531 30.335938 C 32 30.15625 31.96875 29.976562 31.925781 29.796875 C 31.882812 29.621094 31.828125 29.449219 31.761719 29.277344 C 31.699219 29.109375 31.621094 28.945312 31.535156 28.785156 C 31.449219 28.625 31.351562 28.472656 31.246094 28.324219 C 31.136719 28.175781 31.023438 28.039062 30.898438 27.90625 C 30.773438 27.773438 30.640625 27.652344 30.5 27.535156 C 30.359375 27.421875 30.214844 27.316406 30.058594 27.222656 C 29.90625 27.125 29.746094 27.042969 29.582031 26.96875 C 29.417969 26.894531 29.25 26.832031 29.074219 26.777344 C 28.902344 26.726562 28.726562 26.6875 28.550781 26.65625 C 28.371094 26.628906 28.191406 26.613281 28.011719 26.605469 C 27.832031 26.601562 27.652344 26.609375 27.472656 26.625 C 27.292969 26.644531 27.117188 26.675781 26.941406 26.714844 C 26.765625 26.757812 26.59375 26.8125 26.425781 26.875 C 26.253906 26.941406 26.089844 27.015625 25.933594 27.101562 C 25.773438 27.1875 25.621094 27.28125 25.472656 27.386719 C 25.328125 27.496094 25.1875 27.609375 25.054688 27.734375 C 24.925781 27.859375 24.800781 27.992188 24.6875 28.132812 C 24.570312 28.273438 24.464844 28.417969 24.371094 28.574219 C 24.359375 28.601562 24.34375 28.628906 24.328125 28.652344 C 24.316406 28.675781 24.296875 28.703125 24.28125 28.726562 Z M 8.523438 15.003906 C 8.34375 15.003906 8.164062 15.015625 7.984375 15.039062 C 7.808594 15.0625 7.632812 15.097656 7.457031 15.144531 C 7.285156 15.191406 7.117188 15.25 6.949219 15.320312 C 6.785156 15.386719 6.621094 15.46875 6.46875 15.558594 C 6.3125 15.648438 6.160156 15.746094 6.019531 15.855469 C 5.875 15.96875 5.742188 16.085938 5.613281 16.214844 C 5.484375 16.339844 5.367188 16.476562 5.257812 16.621094 C 5.148438 16.761719 5.046875 16.914062 4.957031 17.070312 C 4.867188 17.226562 4.785156 17.386719 4.714844 17.554688 C 4.644531 17.722656 4.585938 17.890625 4.539062 18.066406 C 4.492188 18.242188 4.453125 18.417969 4.429688 18.597656 C 4.40625 18.777344 4.390625 18.957031 4.390625 19.140625 C 4.386719 19.320312 4.398438 19.5 4.417969 19.679688 C 4.441406 19.859375 4.472656 20.039062 4.519531 20.214844 C 4.5625 20.390625 4.621094 20.5625 4.6875 20.730469 C 4.753906 20.898438 4.832031 21.0625 4.917969 21.21875 C 5.003906 21.378906 5.101562 21.53125 5.210938 21.675781 C 5.316406 21.820312 5.433594 21.957031 5.558594 22.089844 C 5.683594 22.21875 5.816406 22.339844 5.957031 22.453125 C 6.097656 22.5625 6.246094 22.667969 6.398438 22.761719 C 6.554688 22.851562 6.714844 22.9375 6.878906 23.007812 C 7.042969 23.078125 7.210938 23.140625 7.382812 23.191406 C 7.558594 23.242188 7.730469 23.277344 7.910156 23.304688 C 8.085938 23.332031 8.265625 23.347656 8.445312 23.351562 C 8.625 23.355469 8.804688 23.347656 8.980469 23.324219 C 9.160156 23.304688 9.335938 23.273438 9.511719 23.230469 C 9.683594 23.1875 9.855469 23.132812 10.023438 23.066406 C 10.1875 23 10.351562 22.925781 10.507812 22.835938 C 10.667969 22.75 10.816406 22.652344 10.960938 22.546875 C 11.105469 22.4375 11.246094 22.320312 11.375 22.195312 C 11.503906 22.070312 11.625 21.9375 11.738281 21.796875 C 11.851562 21.65625 11.953125 21.507812 12.046875 21.351562 L 12.078125 21.292969 L 12.113281 21.238281 C 12.46875 20.609375 12.652344 19.929688 12.65625 19.203125 C 12.660156 18.476562 12.488281 17.792969 12.140625 17.15625 C 12.113281 17.121094 12.085938 17.082031 12.0625 17.042969 C 12.039062 17.003906 12.019531 16.964844 12.003906 16.921875 C 11.621094 16.324219 11.121094 15.855469 10.503906 15.515625 C 9.886719 15.175781 9.226562 15.003906 8.523438 15.003906 Z M 24.464844 9.753906 C 24.558594 9.90625 24.660156 10.050781 24.773438 10.191406 C 24.886719 10.328125 25.007812 10.460938 25.136719 10.582031 C 25.269531 10.707031 25.40625 10.820312 25.550781 10.921875 C 25.695312 11.027344 25.84375 11.121094 26 11.207031 C 26.15625 11.292969 26.316406 11.367188 26.484375 11.429688 C 26.648438 11.492188 26.820312 11.546875 26.992188 11.585938 C 27.164062 11.628906 27.339844 11.660156 27.515625 11.675781 C 27.691406 11.695312 27.871094 11.703125 28.046875 11.699219 C 28.226562 11.691406 28.402344 11.675781 28.578125 11.648438 C 28.753906 11.621094 28.925781 11.582031 29.097656 11.53125 C 29.265625 11.480469 29.433594 11.417969 29.59375 11.347656 C 29.757812 11.273438 29.914062 11.191406 30.066406 11.097656 C 30.21875 11.003906 30.363281 10.902344 30.5 10.789062 C 30.640625 10.675781 30.769531 10.554688 30.894531 10.425781 C 31.015625 10.296875 31.132812 10.160156 31.238281 10.015625 C 31.34375 9.871094 31.4375 9.722656 31.523438 9.5625 C 31.609375 9.40625 31.683594 9.246094 31.75 9.078125 C 31.816406 8.910156 31.871094 8.742188 31.914062 8.566406 C 31.957031 8.394531 31.988281 8.21875 32.007812 8.039062 C 32.027344 7.859375 32.039062 7.683594 32.035156 7.503906 C 32.035156 7.324219 32.019531 7.144531 31.992188 6.96875 C 31.96875 6.789062 31.933594 6.613281 31.882812 6.441406 C 31.835938 6.269531 31.777344 6.101562 31.707031 5.933594 C 31.636719 5.769531 31.558594 5.609375 31.46875 5.457031 C 31.378906 5.300781 31.277344 5.152344 31.167969 5.011719 C 31.058594 4.871094 30.941406 4.738281 30.816406 4.609375 C 30.6875 4.484375 30.554688 4.367188 30.414062 4.257812 C 30.269531 4.152344 30.125 4.050781 29.96875 3.964844 C 29.816406 3.875 29.65625 3.796875 29.492188 3.726562 C 29.328125 3.660156 29.160156 3.601562 28.988281 3.558594 C 28.816406 3.511719 28.640625 3.476562 28.464844 3.453125 C 28.289062 3.429688 28.113281 3.417969 27.933594 3.417969 C 27.757812 3.417969 27.582031 3.429688 27.40625 3.453125 C 27.230469 3.476562 27.054688 3.511719 26.882812 3.558594 C 26.710938 3.605469 26.542969 3.664062 26.378906 3.730469 C 26.214844 3.800781 26.054688 3.878906 25.902344 3.964844 C 25.746094 4.054688 25.601562 4.15625 25.457031 4.261719 C 25.316406 4.371094 25.183594 4.488281 25.058594 4.613281 C 24.929688 4.742188 24.8125 4.875 24.703125 5.015625 C 24.59375 5.160156 24.496094 5.304688 24.40625 5.460938 C 24.316406 5.617188 24.234375 5.777344 24.167969 5.941406 C 24.097656 6.105469 24.039062 6.273438 23.992188 6.449219 C 23.941406 6.621094 23.90625 6.796875 23.882812 6.972656 C 23.855469 7.152344 23.84375 7.328125 23.839844 7.507812 C 23.839844 7.6875 23.847656 7.867188 23.867188 8.046875 C 23.890625 8.222656 23.921875 8.398438 23.964844 8.574219 C 24.007812 8.746094 24.0625 8.917969 24.128906 9.085938 C 24.195312 9.25 24.269531 9.414062 24.355469 9.570312 C 24.375 9.59375 24.394531 9.621094 24.410156 9.652344 C 24.429688 9.683594 24.449219 9.71875 24.464844 9.753906 Z M 24.464844 9.753906 " fill-opacity="1" fill-rule="nonzero"/></g></svg>