<svg xmlns="http://www.w3.org/2000/svg" xmlns:xlink="http://www.w3.org/1999/xlink" width="50" zoomAndPan="magnify" viewBox="0 0 37.5 37.499999" height="50" preserveAspectRatio="xMidYMid meet" version="1.0"><defs><clipPath id="923ba6590d"><path d="M 27 14 L 37.007812 14 L 37.007812 20 L 27 20 Z M 27 14 " clip-rule="nonzero"/></clipPath><clipPath id="fac21b7f60"><path d="M 8 17 L 34 17 L 34 34.636719 L 8 34.636719 Z M 8 17 " clip-rule="nonzero"/></clipPath></defs><g clip-path="url(#923ba6590d)"><path fill="#7a7df1" d="M 32.335938 14.792969 L 27.914062 19.253906 C 27.804688 19.363281 27.777344 19.492188 27.839844 19.636719 C 27.898438 19.785156 28.007812 19.855469 28.164062 19.855469 L 37 19.855469 C 37.15625 19.855469 37.265625 19.785156 37.324219 19.636719 C 37.386719 19.492188 37.359375 19.363281 37.25 19.253906 L 32.832031 14.792969 C 32.761719 14.722656 32.679688 14.691406 32.582031 14.691406 C 32.484375 14.691406 32.402344 14.722656 32.335938 14.792969 Z M 32.335938 14.792969 " fill-opacity="1" fill-rule="nonzero"/></g><path fill="#7a7df1" d="M 4.523438 23.867188 L 0.105469 19.410156 C -0.0078125 19.296875 -0.0351562 19.167969 0.0273438 19.023438 C 0.0859375 18.875 0.195312 18.804688 0.351562 18.804688 L 9.1875 18.804688 C 9.34375 18.804688 9.453125 18.875 9.515625 19.023438 C 9.574219 19.167969 9.546875 19.296875 9.4375 19.410156 L 5.019531 23.867188 C 4.949219 23.9375 4.867188 23.972656 4.769531 23.972656 C 4.671875 23.972656 4.589844 23.9375 4.523438 23.867188 Z M 4.523438 23.867188 " fill-opacity="1" fill-rule="nonzero"/><path fill="#7a7df1" d="M 4.765625 20.902344 C 4.628906 20.902344 4.496094 20.875 4.367188 20.820312 C 4.242188 20.769531 4.128906 20.695312 4.03125 20.59375 C 3.9375 20.496094 3.859375 20.382812 3.808594 20.257812 C 3.753906 20.128906 3.730469 19.996094 3.730469 19.855469 C 3.730469 19.113281 3.785156 18.378906 3.890625 17.644531 C 4 16.910156 4.160156 16.1875 4.375 15.480469 C 4.585938 14.769531 4.851562 14.078125 5.164062 13.410156 C 5.480469 12.738281 5.839844 12.09375 6.25 11.480469 C 6.65625 10.863281 7.109375 10.28125 7.601562 9.730469 C 8.097656 9.179688 8.625 8.671875 9.195312 8.199219 C 9.761719 7.730469 10.363281 7.304688 10.992188 6.921875 C 11.621094 6.542969 12.277344 6.210938 12.957031 5.925781 C 13.636719 5.640625 14.332031 5.410156 15.042969 5.230469 C 15.757812 5.050781 16.480469 4.921875 17.210938 4.851562 C 17.941406 4.777344 18.675781 4.757812 19.410156 4.796875 C 20.144531 4.832031 20.871094 4.921875 21.589844 5.066406 C 22.3125 5.210938 23.019531 5.410156 23.710938 5.660156 C 24.402344 5.910156 25.074219 6.210938 25.722656 6.558594 C 26.371094 6.910156 26.988281 7.304688 27.578125 7.746094 C 28.167969 8.1875 28.722656 8.671875 29.242188 9.195312 C 29.339844 9.292969 29.410156 9.40625 29.460938 9.535156 C 29.511719 9.660156 29.535156 9.792969 29.535156 9.929688 C 29.535156 10.066406 29.507812 10.199219 29.453125 10.324219 C 29.402344 10.453125 29.328125 10.5625 29.230469 10.660156 C 29.136719 10.757812 29.023438 10.832031 28.898438 10.886719 C 28.773438 10.9375 28.644531 10.964844 28.507812 10.964844 C 28.371094 10.96875 28.242188 10.941406 28.113281 10.890625 C 27.988281 10.839844 27.875 10.769531 27.777344 10.671875 C 26.878906 9.765625 25.867188 9.007812 24.746094 8.402344 C 23.621094 7.796875 22.4375 7.367188 21.1875 7.117188 C 19.9375 6.867188 18.679688 6.804688 17.414062 6.929688 C 16.148438 7.054688 14.925781 7.363281 13.75 7.855469 C 12.574219 8.347656 11.492188 9 10.507812 9.816406 C 9.523438 10.628906 8.679688 11.570312 7.972656 12.640625 C 7.265625 13.707031 6.726562 14.855469 6.355469 16.085938 C 5.984375 17.316406 5.800781 18.570312 5.800781 19.855469 C 5.800781 19.996094 5.773438 20.128906 5.722656 20.257812 C 5.667969 20.382812 5.59375 20.496094 5.496094 20.59375 C 5.402344 20.695312 5.289062 20.769531 5.160156 20.820312 C 5.035156 20.875 4.902344 20.902344 4.765625 20.902344 Z M 4.765625 20.902344 " fill-opacity="1" fill-rule="nonzero"/><g clip-path="url(#fac21b7f60)"><path fill="#7a7df1" d="M 18.644531 34.238281 C 16.730469 34.242188 14.882812 33.882812 13.101562 33.164062 C 11.324219 32.445312 9.742188 31.417969 8.355469 30.082031 C 8.257812 29.984375 8.179688 29.875 8.125 29.746094 C 8.066406 29.621094 8.039062 29.488281 8.035156 29.347656 C 8.03125 29.210938 8.054688 29.078125 8.105469 28.949219 C 8.152344 28.816406 8.226562 28.703125 8.320312 28.601562 C 8.414062 28.503906 8.527344 28.425781 8.652344 28.367188 C 8.777344 28.3125 8.90625 28.28125 9.046875 28.277344 C 9.183594 28.277344 9.316406 28.300781 9.445312 28.347656 C 9.570312 28.398438 9.6875 28.472656 9.785156 28.566406 C 10.707031 29.453125 11.738281 30.1875 12.875 30.765625 C 14.011719 31.34375 15.207031 31.742188 16.464844 31.960938 C 17.71875 32.179688 18.976562 32.210938 20.242188 32.054688 C 21.507812 31.898438 22.722656 31.558594 23.886719 31.035156 C 25.050781 30.515625 26.113281 29.835938 27.078125 28.996094 C 28.042969 28.15625 28.863281 27.191406 29.546875 26.105469 C 30.226562 25.019531 30.734375 23.855469 31.074219 22.617188 C 31.414062 21.378906 31.566406 20.117188 31.53125 18.832031 C 31.53125 18.695312 31.550781 18.558594 31.601562 18.429688 C 31.652344 18.300781 31.722656 18.183594 31.816406 18.085938 C 31.910156 17.984375 32.023438 17.90625 32.148438 17.847656 C 32.273438 17.792969 32.40625 17.761719 32.542969 17.757812 L 32.570312 17.757812 C 32.851562 17.757812 33.089844 17.859375 33.292969 18.058594 C 33.496094 18.253906 33.597656 18.496094 33.605469 18.78125 C 33.628906 19.769531 33.558594 20.753906 33.390625 21.726562 C 33.222656 22.703125 32.960938 23.652344 32.609375 24.578125 C 32.257812 25.5 31.816406 26.382812 31.292969 27.21875 C 30.769531 28.054688 30.167969 28.832031 29.492188 29.550781 C 28.816406 30.269531 28.074219 30.910156 27.273438 31.480469 C 26.472656 32.054688 25.621094 32.539062 24.726562 32.941406 C 23.828125 33.34375 22.902344 33.652344 21.945312 33.871094 C 20.984375 34.085938 20.015625 34.207031 19.035156 34.234375 Z M 18.644531 34.238281 " fill-opacity="1" fill-rule="nonzero"/></g></svg>