<svg xmlns="http://www.w3.org/2000/svg" xmlns:xlink="http://www.w3.org/1999/xlink" width="50" zoomAndPan="magnify" viewBox="0 0 37.5 37.499999" height="50" preserveAspectRatio="xMidYMid meet" version="1.0"><defs><clipPath id="b87f184644"><path d="M 1.085938 1.085938 L 36.335938 1.085938 L 36.335938 36.335938 L 1.085938 36.335938 Z M 1.085938 1.085938 " clip-rule="nonzero"/></clipPath></defs><g clip-path="url(#b87f184644)"><path fill="#7a7df1" d="M 18.710938 1.722656 C 28.09375 1.722656 35.699219 9.328125 35.699219 18.710938 C 35.699219 28.09375 28.09375 35.699219 18.710938 35.699219 C 9.328125 35.699219 1.722656 28.09375 1.722656 18.710938 C 1.722656 9.328125 9.328125 1.722656 18.710938 1.722656 Z M 18.710938 1.085938 C 8.976562 1.085938 1.085938 8.976562 1.085938 18.710938 C 1.085938 28.445312 8.976562 36.335938 18.710938 36.335938 C 28.445312 36.335938 36.335938 28.445312 36.335938 18.710938 C 36.335938 8.976562 28.445312 1.085938 18.710938 1.085938 Z M 27.15625 10.871094 L 27.15625 18.242188 L 25.082031 16.898438 L 21.152344 19.339844 L 20.492188 19.75 L 20.105469 19.988281 L 20.105469 8.6875 L 15.640625 11.453125 L 15.640625 16.316406 L 14.59375 15.605469 L 14.59375 10.871094 L 21.152344 6.804688 Z M 4.042969 18.710938 C 4.042969 10.609375 10.609375 4.042969 18.710938 4.042969 C 26.8125 4.042969 33.378906 10.609375 33.378906 18.710938 C 33.378906 22.453125 31.976562 25.867188 29.667969 28.460938 L 29.667969 20.648438 L 25.097656 17.554688 L 20.105469 20.648438 L 20.105469 33.3125 C 19.644531 33.355469 19.179688 33.378906 18.710938 33.378906 C 18.238281 33.378906 17.777344 33.355469 17.316406 33.3125 L 17.316406 18.160156 L 12.746094 15.066406 L 7.753906 18.160156 L 7.753906 28.460938 C 5.445312 25.867188 4.042969 22.453125 4.042969 18.710938 Z M 8.550781 18.601562 L 11.949219 16.5 L 11.949219 31.726562 C 10.699219 31.078125 9.558594 30.253906 8.550781 29.285156 Z M 20.902344 21.09375 L 24.300781 18.988281 L 24.300781 32.273438 C 23.226562 32.71875 22.085938 33.039062 20.902344 33.214844 Z M 2.570312 18.710938 C 2.570312 27.625 9.796875 34.847656 18.710938 34.847656 C 27.625 34.847656 34.847656 27.625 34.847656 18.710938 C 34.847656 9.796875 27.625 2.570312 18.710938 2.570312 C 9.796875 2.570312 2.570312 9.796875 2.570312 18.710938 " fill-opacity="1" fill-rule="nonzero"/></g></svg>