<svg xmlns="http://www.w3.org/2000/svg" xmlns:xlink="http://www.w3.org/1999/xlink" width="50" zoomAndPan="magnify" viewBox="0 0 37.5 37.499999" height="50" preserveAspectRatio="xMidYMid meet" version="1.0"><defs><clipPath id="7e9a05bf74"><path d="M 0.257812 0 L 37 0 L 37 37.007812 L 0.257812 37.007812 Z M 0.257812 0 " clip-rule="nonzero"/></clipPath><clipPath id="fa56347953"><path d="M 0.257812 0 L 26 0 L 26 37.007812 L 0.257812 37.007812 Z M 0.257812 0 " clip-rule="nonzero"/></clipPath></defs><g clip-path="url(#7e9a05bf74)"><path fill="#f6f9ff" d="M 35.355469 37.167969 L 24.214844 33 C 23.980469 32.910156 23.789062 32.738281 23.675781 32.511719 L 19.554688 24.335938 C 19.179688 23.597656 18.132812 23.601562 17.765625 24.34375 L 13.796875 32.4375 C 13.6875 32.667969 13.488281 32.847656 13.25 32.9375 L 1.90625 37.183594 C 1.0625 37.5 0.265625 36.621094 0.65625 35.804688 L 17.5 0.757812 C 17.859375 0.0078125 18.921875 0 19.292969 0.75 L 36.597656 35.78125 C 37.003906 36.597656 36.207031 37.488281 35.355469 37.167969 " fill-opacity="1" fill-rule="nonzero"/></g><g clip-path="url(#fa56347953)"><path fill="#7c83fd" d="M 25.882812 14.085938 C 22.417969 16.484375 19.707031 19.902344 18.175781 23.910156 C 18.007812 24 17.863281 24.148438 17.765625 24.34375 L 13.796875 32.4375 C 13.683594 32.667969 13.488281 32.847656 13.25 32.9375 L 1.90625 37.183594 C 1.0625 37.5 0.265625 36.621094 0.65625 35.804688 L 17.5 0.757812 C 17.859375 0.0078125 18.921875 0 19.292969 0.75 L 25.882812 14.085938 " fill-opacity="1" fill-rule="nonzero"/></g><path fill="#f6f9ff" d="M 18.175781 23.910156 C 18.300781 23.839844 18.433594 23.800781 18.570312 23.789062 C 18.433594 23.800781 18.300781 23.839844 18.175781 23.910156 M 18.570312 23.789062 L 18.570312 23.789062 M 18.574219 23.789062 L 18.574219 23.789062 M 26.160156 14.648438 L 25.882812 14.085938 L 26.160156 14.648438 " fill-opacity="1" fill-rule="nonzero"/><path fill="#a6a6a6" d="M 20.765625 26.738281 L 19.554688 24.335938 C 19.367188 23.96875 19.015625 23.785156 18.664062 23.785156 C 18.632812 23.785156 18.601562 23.785156 18.574219 23.789062 C 18.574219 23.789062 18.570312 23.789062 18.570312 23.789062 C 18.433594 23.800781 18.300781 23.839844 18.175781 23.910156 C 19.707031 19.902344 22.417969 16.484375 25.882812 14.085938 L 26.160156 14.648438 L 26.195312 14.722656 C 22.957031 17.457031 20.054688 22.769531 20.765625 26.738281 " fill-opacity="1" fill-rule="nonzero"/></svg>