<svg xmlns="http://www.w3.org/2000/svg" xmlns:xlink="http://www.w3.org/1999/xlink" width="50" zoomAndPan="magnify" viewBox="0 0 37.5 37.499999" height="50" preserveAspectRatio="xMidYMid meet" version="1.0"><defs><clipPath id="9bb29ddcb2"><path d="M 1.164062 1.164062 L 36.414062 1.164062 L 36.414062 36.414062 L 1.164062 36.414062 Z M 1.164062 1.164062 " clip-rule="nonzero"/></clipPath></defs><path fill="#7a7df1" d="M 20.480469 13.5 L 20.480469 16.367188 L 24.089844 16.367188 L 23.582031 20.289062 L 20.480469 20.289062 L 20.480469 29.269531 L 16.546875 29.269531 L 16.546875 20.289062 L 13.175781 20.289062 L 13.175781 16.367188 L 16.546875 16.367188 L 16.546875 13.5 C 16.546875 10.398438 19.054688 8.304688 22.15625 8.304688 C 23.523438 8.304688 24.386719 8.511719 24.386719 8.511719 L 24.386719 11.824219 L 22.15625 11.824219 C 21.238281 11.824219 20.480469 12.582031 20.480469 13.5 Z M 20.480469 13.5 " fill-opacity="1" fill-rule="nonzero"/><g clip-path="url(#9bb29ddcb2)"><path fill="#7a7df1" d="M 18.789062 36.414062 C 9.078125 36.414062 1.164062 28.511719 1.164062 18.789062 C 1.164062 9.0625 9.078125 1.164062 18.789062 1.164062 C 28.511719 1.164062 36.414062 9.078125 36.414062 18.789062 C 36.414062 28.5 28.511719 36.414062 18.789062 36.414062 Z M 18.789062 2.128906 C 9.597656 2.128906 2.128906 9.597656 2.128906 18.789062 C 2.128906 27.980469 9.597656 35.449219 18.789062 35.449219 C 27.980469 35.449219 35.449219 27.980469 35.449219 18.789062 C 35.449219 9.597656 27.980469 2.128906 18.789062 2.128906 Z M 18.789062 2.128906 " fill-opacity="1" fill-rule="nonzero"/></g></svg>