<svg xmlns="http://www.w3.org/2000/svg" xmlns:xlink="http://www.w3.org/1999/xlink" width="50" zoomAndPan="magnify" viewBox="0 0 37.5 37.499999" height="50" preserveAspectRatio="xMidYMid meet" version="1.0"><defs><clipPath id="beab78cadd"><path d="M 1.273438 1.273438 L 36.523438 1.273438 L 36.523438 36.523438 L 1.273438 36.523438 Z M 1.273438 1.273438 " clip-rule="nonzero"/></clipPath></defs><g clip-path="url(#beab78cadd)"><path fill="#7a7df1" d="M 22.140625 19.394531 C 22.140625 21.183594 20.6875 22.632812 18.902344 22.632812 C 17.113281 22.632812 15.664062 21.179688 15.664062 19.394531 C 15.664062 17.605469 17.113281 16.15625 18.902344 16.15625 C 20.691406 16.15625 22.140625 17.605469 22.140625 19.394531 Z M 26.808594 15.464844 C 26.859375 16.492188 26.867188 16.800781 26.867188 19.394531 C 26.867188 21.988281 26.855469 22.292969 26.808594 23.320312 C 26.769531 24.265625 26.609375 24.78125 26.476562 25.125 C 26.300781 25.578125 26.089844 25.902344 25.75 26.242188 C 25.410156 26.582031 25.085938 26.789062 24.632812 26.96875 C 24.289062 27.101562 23.773438 27.257812 22.828125 27.300781 C 21.804688 27.347656 21.496094 27.359375 18.898438 27.359375 C 16.304688 27.359375 16 27.347656 14.972656 27.300781 C 14.027344 27.257812 13.511719 27.101562 13.167969 26.96875 C 12.714844 26.789062 12.390625 26.582031 12.050781 26.242188 C 11.710938 25.902344 11.5 25.578125 11.324219 25.125 C 11.191406 24.78125 11.035156 24.265625 10.988281 23.320312 C 10.945312 22.292969 10.933594 21.984375 10.933594 19.394531 C 10.933594 16.800781 10.945312 16.492188 10.988281 15.464844 C 11.035156 14.519531 11.191406 14.003906 11.324219 13.660156 C 11.5 13.207031 11.710938 12.882812 12.050781 12.542969 C 12.390625 12.203125 12.714844 11.996094 13.167969 11.816406 C 13.511719 11.6875 14.023438 11.527344 14.972656 11.484375 C 15.996094 11.4375 16.304688 11.425781 18.898438 11.425781 C 21.496094 11.425781 21.800781 11.4375 22.828125 11.484375 C 23.773438 11.527344 24.289062 11.683594 24.632812 11.816406 C 25.085938 11.996094 25.410156 12.203125 25.75 12.542969 C 26.089844 12.882812 26.300781 13.207031 26.476562 13.660156 C 26.609375 14.003906 26.765625 14.519531 26.808594 15.464844 Z M 23.890625 19.394531 C 23.890625 16.640625 21.660156 14.402344 18.902344 14.402344 C 16.144531 14.402344 13.914062 16.636719 13.914062 19.394531 C 13.914062 22.148438 16.144531 24.382812 18.902344 24.382812 C 21.660156 24.382812 23.890625 22.148438 23.890625 19.394531 Z M 25.253906 14.207031 C 25.253906 13.5625 24.730469 13.042969 24.085938 13.042969 C 23.441406 13.042969 22.921875 13.5625 22.921875 14.207031 C 22.921875 14.851562 23.445312 15.375 24.085938 15.375 C 24.730469 15.375 25.253906 14.851562 25.253906 14.207031 Z M 36.527344 18.898438 C 36.527344 28.632812 28.636719 36.523438 18.902344 36.523438 C 9.167969 36.523438 1.273438 28.632812 1.273438 18.898438 C 1.273438 9.164062 9.164062 1.273438 18.898438 1.273438 C 28.632812 1.273438 36.523438 9.164062 36.523438 18.898438 Z M 28.617188 19.394531 C 28.617188 16.753906 28.609375 16.421875 28.558594 15.386719 C 28.511719 14.351562 28.347656 13.648438 28.109375 13.027344 C 27.859375 12.390625 27.527344 11.847656 26.988281 11.308594 C 26.445312 10.769531 25.90625 10.4375 25.269531 10.1875 C 24.648438 9.949219 23.945312 9.785156 22.910156 9.738281 C 21.875 9.6875 21.542969 9.679688 18.902344 9.679688 C 16.265625 9.679688 15.933594 9.6875 14.898438 9.738281 C 13.863281 9.785156 13.15625 9.949219 12.539062 10.1875 C 11.902344 10.4375 11.359375 10.769531 10.820312 11.308594 C 10.28125 11.847656 9.945312 12.390625 9.699219 13.027344 C 9.457031 13.648438 9.292969 14.351562 9.246094 15.386719 C 9.199219 16.421875 9.1875 16.753906 9.1875 19.394531 C 9.1875 22.03125 9.199219 22.363281 9.246094 23.398438 C 9.292969 24.433594 9.457031 25.140625 9.699219 25.757812 C 9.945312 26.394531 10.277344 26.9375 10.820312 27.476562 C 11.359375 28.015625 11.902344 28.351562 12.539062 28.597656 C 13.15625 28.839844 13.863281 29.003906 14.898438 29.050781 C 15.933594 29.097656 16.265625 29.109375 18.902344 29.109375 C 21.542969 29.109375 21.875 29.097656 22.910156 29.050781 C 23.945312 29.003906 24.648438 28.839844 25.269531 28.597656 C 25.90625 28.351562 26.449219 28.019531 26.988281 27.476562 C 27.527344 26.9375 27.859375 26.394531 28.109375 25.757812 C 28.347656 25.140625 28.511719 24.433594 28.558594 23.398438 C 28.609375 22.363281 28.617188 22.03125 28.617188 19.394531 Z M 28.617188 19.394531 " fill-opacity="1" fill-rule="nonzero"/></g></svg>