<svg xmlns="http://www.w3.org/2000/svg" xmlns:xlink="http://www.w3.org/1999/xlink" width="50" zoomAndPan="magnify" viewBox="0 0 37.5 37.499999" height="50" preserveAspectRatio="xMidYMid meet" version="1.0"><defs><clipPath id="c7d502c529"><path d="M 1.164062 1.164062 L 36.414062 1.164062 L 36.414062 36.414062 L 1.164062 36.414062 Z M 1.164062 1.164062 " clip-rule="nonzero"/></clipPath></defs><g clip-path="url(#c7d502c529)"><path fill="#7a7df1" d="M 11.578125 1.164062 C 5.835938 1.164062 1.164062 5.835938 1.164062 11.578125 L 1.164062 25.996094 C 1.164062 31.738281 5.835938 36.414062 11.578125 36.414062 L 25.996094 36.414062 C 31.738281 36.414062 36.414062 31.738281 36.414062 25.996094 L 36.414062 11.578125 C 36.414062 5.835938 31.738281 1.164062 25.996094 1.164062 Z M 11.578125 2.765625 L 25.996094 2.765625 C 30.875 2.765625 34.808594 6.699219 34.808594 11.578125 L 34.808594 25.996094 C 34.808594 30.875 30.875 34.808594 25.996094 34.808594 L 11.578125 34.808594 C 6.699219 34.808594 2.765625 30.875 2.765625 25.996094 L 2.765625 11.578125 C 2.765625 6.699219 6.699219 2.765625 11.578125 2.765625 Z M 28.402344 7.570312 C 28.1875 7.570312 27.984375 7.613281 27.789062 7.695312 C 27.589844 7.773438 27.417969 7.890625 27.269531 8.039062 C 27.117188 8.191406 27.003906 8.363281 26.921875 8.5625 C 26.839844 8.757812 26.800781 8.960938 26.800781 9.175781 C 26.800781 9.386719 26.839844 9.589844 26.921875 9.785156 C 27.003906 9.984375 27.117188 10.15625 27.269531 10.308594 C 27.417969 10.457031 27.589844 10.574219 27.789062 10.652344 C 27.984375 10.734375 28.1875 10.777344 28.402344 10.777344 C 28.613281 10.777344 28.816406 10.734375 29.015625 10.652344 C 29.210938 10.574219 29.382812 10.457031 29.535156 10.308594 C 29.683594 10.15625 29.800781 9.984375 29.882812 9.785156 C 29.960938 9.589844 30.003906 9.386719 30.003906 9.175781 C 30.003906 8.960938 29.960938 8.757812 29.882812 8.5625 C 29.800781 8.363281 29.683594 8.191406 29.535156 8.039062 C 29.382812 7.890625 29.210938 7.773438 29.015625 7.695312 C 28.816406 7.613281 28.613281 7.570312 28.402344 7.570312 Z M 18.789062 9.976562 C 13.929688 9.976562 9.976562 13.929688 9.976562 18.789062 C 9.976562 23.644531 13.929688 27.601562 18.789062 27.601562 C 23.644531 27.601562 27.601562 23.644531 27.601562 18.789062 C 27.601562 13.929688 23.644531 9.976562 18.789062 9.976562 Z M 18.789062 11.578125 C 22.777344 11.578125 25.996094 14.796875 25.996094 18.789062 C 25.996094 22.777344 22.777344 25.996094 18.789062 25.996094 C 14.796875 25.996094 11.578125 22.777344 11.578125 18.789062 C 11.578125 14.796875 14.796875 11.578125 18.789062 11.578125 Z M 18.789062 11.578125 " fill-opacity="1" fill-rule="nonzero"/></g></svg>