<svg xmlns="http://www.w3.org/2000/svg" xmlns:xlink="http://www.w3.org/1999/xlink" width="50" zoomAndPan="magnify" viewBox="0 0 37.5 37.499999" height="50" preserveAspectRatio="xMidYMid meet" version="1.0"><defs><clipPath id="f2a4555e6d"><path d="M 1.125 1.125 L 36.375 1.125 L 36.375 36.375 L 1.125 36.375 Z M 1.125 1.125 " clip-rule="nonzero"/></clipPath></defs><g clip-path="url(#f2a4555e6d)"><path fill="#5f6977" d="M 36.046875 18.75 C 36.046875 28.304688 28.300781 36.046875 18.75 36.046875 C 9.199219 36.046875 1.453125 28.304688 1.453125 18.75 C 1.453125 9.199219 9.199219 1.453125 18.75 1.453125 C 28.300781 1.453125 36.046875 9.199219 36.046875 18.75 Z M 36.046875 18.75 " fill-opacity="1" fill-rule="nonzero"/><path fill="#ffffff" d="M 18.75 36.375 C 16.371094 36.375 14.0625 35.910156 11.890625 34.988281 C 9.789062 34.101562 7.90625 32.832031 6.289062 31.214844 C 4.667969 29.59375 3.398438 27.710938 2.511719 25.609375 C 1.589844 23.4375 1.125 21.128906 1.125 18.75 C 1.125 16.371094 1.589844 14.0625 2.511719 11.890625 C 3.398438 9.792969 4.667969 7.90625 6.289062 6.289062 C 7.90625 4.667969 9.789062 3.398438 11.890625 2.511719 C 14.0625 1.589844 16.371094 1.125 18.75 1.125 C 21.128906 1.125 23.4375 1.589844 25.609375 2.511719 C 27.710938 3.398438 29.59375 4.667969 31.210938 6.289062 C 32.832031 7.90625 34.101562 9.792969 34.988281 11.890625 C 35.910156 14.0625 36.375 16.371094 36.375 18.75 C 36.375 21.128906 35.910156 23.4375 34.988281 25.609375 C 34.101562 27.710938 32.832031 29.59375 31.210938 31.214844 C 29.59375 32.832031 27.710938 34.101562 25.609375 34.988281 C 23.4375 35.910156 21.128906 36.375 18.75 36.375 Z M 18.75 1.78125 C 9.394531 1.78125 1.78125 9.394531 1.78125 18.75 C 1.78125 28.105469 9.394531 35.71875 18.75 35.71875 C 28.105469 35.71875 35.71875 28.105469 35.71875 18.75 C 35.71875 9.394531 28.105469 1.78125 18.75 1.78125 Z M 18.75 1.78125 " fill-opacity="1" fill-rule="nonzero"/></g><path fill="#5f6977" d="M 27.117188 19.5 C 27.117188 24.234375 23.332031 28.074219 18.664062 28.074219 C 13.992188 28.074219 10.207031 24.234375 10.207031 19.5 C 10.207031 14.765625 13.992188 10.929688 18.664062 10.929688 C 20.515625 10.929688 22.226562 11.53125 23.621094 12.554688 " fill-opacity="1" fill-rule="nonzero"/><path fill="#ffffff" d="M 18.664062 29.71875 C 17.296875 29.71875 15.972656 29.445312 14.722656 28.910156 C 13.519531 28.394531 12.4375 27.65625 11.511719 26.71875 C 10.585938 25.777344 9.859375 24.6875 9.351562 23.472656 C 8.828125 22.210938 8.5625 20.878906 8.5625 19.5 C 8.5625 18.125 8.828125 16.789062 9.351562 15.53125 C 9.859375 14.316406 10.585938 13.222656 11.511719 12.285156 C 12.4375 11.347656 13.519531 10.609375 14.722656 10.09375 C 15.972656 9.554688 17.296875 9.285156 18.664062 9.285156 C 20.808594 9.285156 22.859375 9.957031 24.59375 11.230469 L 22.648438 13.882812 C 21.484375 13.023438 20.105469 12.574219 18.664062 12.574219 C 14.90625 12.574219 11.851562 15.679688 11.851562 19.5 C 11.851562 23.320312 14.90625 26.429688 18.664062 26.429688 C 22.417969 26.429688 25.476562 23.320312 25.476562 19.5 L 28.761719 19.5 C 28.761719 20.878906 28.496094 22.210938 27.972656 23.472656 C 27.464844 24.6875 26.738281 25.777344 25.8125 26.71875 C 24.886719 27.65625 23.804688 28.394531 22.601562 28.910156 C 21.351562 29.445312 20.027344 29.71875 18.664062 29.71875 Z M 18.664062 29.71875 " fill-opacity="1" fill-rule="nonzero"/><path fill="#ffffff" d="M 18.203125 17.785156 L 28.730469 17.785156 L 28.730469 21.074219 L 18.203125 21.074219 Z M 18.203125 17.785156 " fill-opacity="1" fill-rule="nonzero"/></svg>