<svg xmlns="http://www.w3.org/2000/svg" xmlns:xlink="http://www.w3.org/1999/xlink" width="50" zoomAndPan="magnify" viewBox="0 0 37.5 37.499999" height="50" preserveAspectRatio="xMidYMid meet" version="1.0"><defs><clipPath id="6b266e68b2"><path d="M 1.011719 1.011719 L 36.261719 1.011719 L 36.261719 36.261719 L 1.011719 36.261719 Z M 1.011719 1.011719 " clip-rule="nonzero"/></clipPath></defs><g clip-path="url(#6b266e68b2)"><path fill="#5f6977" d="M 18.636719 1.011719 C 28.371094 1.011719 36.261719 8.902344 36.261719 18.636719 C 36.261719 28.371094 28.371094 36.261719 18.636719 36.261719 C 8.902344 36.261719 1.011719 28.371094 1.011719 18.636719 C 1.011719 8.902344 8.902344 1.011719 18.636719 1.011719 Z M 11.375 26.222656 L 13.859375 26.222656 L 13.859375 16.378906 L 11.375 16.378906 Z M 19.128906 21.035156 C 19.128906 19.484375 19.863281 18.238281 21.546875 18.238281 C 23.210938 18.238281 23.75 19.578125 23.75 21.035156 L 23.75 26.222656 L 26.21875 26.222656 L 26.21875 19.882812 C 26.21875 17.628906 25.125 16.054688 22.746094 16.054688 C 21.667969 16.054688 20.421875 16.621094 19.894531 17.605469 L 19.128906 18.996094 L 19.128906 16.378906 L 16.78125 16.378906 L 16.78125 26.222656 L 19.128906 26.222656 Z M 19.945312 21.035156 L 19.945312 27.035156 L 15.964844 27.035156 L 15.964844 15.566406 L 19.945312 15.566406 L 19.945312 16.300781 C 20.730469 15.597656 21.695312 15.242188 22.746094 15.242188 C 25.574219 15.242188 27.03125 17.179688 27.03125 19.882812 L 27.03125 27.035156 L 22.933594 27.035156 L 22.933594 21.035156 C 22.933594 20.058594 22.71875 19.050781 21.546875 19.050781 C 20.324219 19.050781 19.945312 19.941406 19.945312 21.035156 Z M 12.601562 14.171875 C 13.460938 14.171875 14.144531 13.46875 14.144531 12.613281 C 14.144531 11.753906 13.460938 11.054688 12.601562 11.054688 C 11.738281 11.054688 11.058594 11.753906 11.058594 12.613281 C 11.058594 13.46875 11.738281 14.171875 12.601562 14.171875 Z M 12.601562 14.984375 C 11.292969 14.984375 10.242188 13.914062 10.242188 12.613281 C 10.242188 11.3125 11.292969 10.238281 12.601562 10.238281 C 13.90625 10.238281 14.957031 11.3125 14.957031 12.613281 C 14.957031 13.914062 13.90625 14.984375 12.601562 14.984375 Z M 10.5625 27.035156 L 10.5625 15.566406 L 14.671875 15.566406 L 14.671875 27.035156 Z M 18.636719 1.824219 C 9.351562 1.824219 1.824219 9.351562 1.824219 18.636719 C 1.824219 27.921875 9.351562 35.449219 18.636719 35.449219 C 27.921875 35.449219 35.449219 27.921875 35.449219 18.636719 C 35.449219 9.351562 27.921875 1.824219 18.636719 1.824219 Z M 18.636719 1.824219 " fill-opacity="1" fill-rule="nonzero"/></g></svg>