<svg xmlns="http://www.w3.org/2000/svg" xmlns:xlink="http://www.w3.org/1999/xlink" width="50" zoomAndPan="magnify" viewBox="0 0 37.5 37.499999" height="50" preserveAspectRatio="xMidYMid meet" version="1.0"><defs><clipPath id="04b0e5ef35"><path d="M 1.125 1.125 L 36.375 1.125 L 36.375 36.375 L 1.125 36.375 Z M 1.125 1.125 " clip-rule="nonzero"/></clipPath></defs><g clip-path="url(#04b0e5ef35)"><path fill="#5f6977" d="M 18.75 1.125 C 9.015625 1.125 1.125 9.015625 1.125 18.75 C 1.125 28.484375 9.015625 36.375 18.75 36.375 C 28.484375 36.375 36.375 28.484375 36.375 18.75 C 36.375 9.015625 28.484375 1.125 18.75 1.125 Z M 13.429688 27.390625 L 9.726562 27.390625 L 9.726562 15.652344 L 13.429688 15.652344 Z M 11.484375 14.183594 L 11.457031 14.183594 C 10.117188 14.183594 9.246094 13.285156 9.246094 12.148438 C 9.246094 11.007812 10.140625 10.109375 11.507812 10.109375 C 12.878906 10.109375 13.714844 10.984375 13.746094 12.144531 C 13.746094 13.28125 12.878906 14.183594 11.484375 14.183594 Z M 28.253906 27.390625 L 24.050781 27.390625 L 24.050781 21.3125 C 24.050781 19.726562 23.394531 18.640625 21.949219 18.640625 C 20.84375 18.640625 20.230469 19.371094 19.941406 20.078125 C 19.835938 20.332031 19.851562 20.683594 19.851562 21.035156 L 19.851562 27.386719 L 15.691406 27.386719 C 15.691406 27.386719 15.746094 16.628906 15.691406 15.648438 L 19.851562 15.648438 L 19.851562 17.492188 C 20.097656 16.6875 21.429688 15.535156 23.550781 15.535156 C 26.183594 15.535156 28.253906 17.226562 28.253906 20.863281 Z M 28.253906 27.390625 " fill-opacity="1" fill-rule="nonzero"/></g></svg>