<svg xmlns="http://www.w3.org/2000/svg" xmlns:xlink="http://www.w3.org/1999/xlink" width="50" zoomAndPan="magnify" viewBox="0 0 37.5 37.499999" height="50" preserveAspectRatio="xMidYMid meet" version="1.0"><defs><clipPath id="c71b233246"><path d="M 1.273438 1.273438 L 36.523438 1.273438 L 36.523438 36.523438 L 1.273438 36.523438 Z M 1.273438 1.273438 " clip-rule="nonzero"/></clipPath></defs><g clip-path="url(#c71b233246)"><path fill="#7a7df1" d="M 18.898438 1.273438 C 9.164062 1.273438 1.273438 9.164062 1.273438 18.898438 C 1.273438 28.632812 9.164062 36.523438 18.898438 36.523438 C 28.632812 36.523438 36.523438 28.632812 36.523438 18.898438 C 36.523438 9.164062 28.632812 1.273438 18.898438 1.273438 Z M 26.777344 14.757812 C 26.785156 14.9375 26.789062 15.117188 26.789062 15.296875 C 26.789062 20.804688 22.703125 27.152344 15.226562 27.152344 C 12.929688 27.152344 10.792969 26.460938 8.996094 25.285156 C 9.3125 25.324219 9.636719 25.339844 9.964844 25.339844 C 11.867188 25.339844 13.621094 24.675781 15.011719 23.554688 C 13.234375 23.523438 11.734375 22.316406 11.214844 20.664062 C 11.464844 20.710938 11.71875 20.738281 11.980469 20.738281 C 12.351562 20.738281 12.710938 20.6875 13.050781 20.589844 C 11.191406 20.210938 9.792969 18.523438 9.792969 16.503906 L 9.792969 16.453125 C 10.339844 16.765625 10.96875 16.953125 11.632812 16.972656 C 10.542969 16.226562 9.824219 14.949219 9.824219 13.503906 C 9.824219 12.742188 10.023438 12.023438 10.375 11.40625 C 12.378906 13.929688 15.375 15.589844 18.75 15.761719 C 18.679688 15.457031 18.648438 15.140625 18.648438 14.8125 C 18.648438 12.511719 20.46875 10.644531 22.710938 10.644531 C 23.878906 10.644531 24.9375 11.152344 25.675781 11.960938 C 26.605469 11.773438 27.472656 11.429688 28.257812 10.949219 C 27.957031 11.925781 27.3125 12.738281 26.472656 13.257812 C 27.292969 13.15625 28.078125 12.933594 28.804688 12.601562 C 28.261719 13.4375 27.574219 14.167969 26.777344 14.757812 Z M 26.777344 14.757812 " fill-opacity="1" fill-rule="nonzero"/></g></svg>