<svg xmlns="http://www.w3.org/2000/svg" xmlns:xlink="http://www.w3.org/1999/xlink" width="50" zoomAndPan="magnify" viewBox="0 0 37.5 37.499999" height="50" preserveAspectRatio="xMidYMid meet" version="1.0"><defs><clipPath id="7b782ad5dd"><path d="M 1.199219 1.199219 L 36.449219 1.199219 L 36.449219 36.449219 L 1.199219 36.449219 Z M 1.199219 1.199219 " clip-rule="nonzero"/></clipPath></defs><g clip-path="url(#7b782ad5dd)"><path fill="#5f6977" d="M 18.824219 1.199219 C 9.089844 1.199219 1.199219 9.089844 1.199219 18.824219 C 1.199219 28.558594 9.089844 36.449219 18.824219 36.449219 C 28.558594 36.449219 36.449219 28.558594 36.449219 18.824219 C 36.449219 9.089844 28.558594 1.199219 18.824219 1.199219 Z M 26.703125 14.683594 C 26.710938 14.859375 26.714844 15.042969 26.714844 15.222656 C 26.714844 20.730469 22.625 27.078125 15.148438 27.078125 C 12.855469 27.078125 10.71875 26.386719 8.917969 25.207031 C 9.238281 25.246094 9.5625 25.265625 9.890625 25.265625 C 11.792969 25.265625 13.546875 24.597656 14.9375 23.480469 C 13.160156 23.449219 11.660156 22.242188 11.140625 20.585938 C 11.390625 20.636719 11.644531 20.660156 11.90625 20.660156 C 12.277344 20.660156 12.636719 20.613281 12.976562 20.515625 C 11.117188 20.132812 9.714844 18.449219 9.714844 16.429688 L 9.714844 16.378906 C 10.265625 16.6875 10.894531 16.878906 11.558594 16.898438 C 10.46875 16.152344 9.75 14.875 9.75 13.429688 C 9.75 12.667969 9.949219 11.949219 10.300781 11.332031 C 12.304688 13.855469 15.300781 15.511719 18.675781 15.6875 C 18.605469 15.382812 18.574219 15.066406 18.574219 14.738281 C 18.574219 12.4375 20.390625 10.570312 22.636719 10.570312 C 23.804688 10.570312 24.863281 11.078125 25.601562 11.886719 C 26.527344 11.699219 27.398438 11.355469 28.183594 10.875 C 27.878906 11.847656 27.234375 12.664062 26.398438 13.179688 C 27.21875 13.082031 28.003906 12.855469 28.730469 12.527344 C 28.1875 13.359375 27.5 14.09375 26.703125 14.683594 Z M 26.703125 14.683594 " fill-opacity="1" fill-rule="nonzero"/></g></svg>