<svg xmlns="http://www.w3.org/2000/svg" xmlns:xlink="http://www.w3.org/1999/xlink" width="50" zoomAndPan="magnify" viewBox="0 0 37.5 37.499999" height="50" preserveAspectRatio="xMidYMid meet" version="1.0"><defs><clipPath id="529d6277b2"><path d="M 1.125 1.125 L 36.375 1.125 L 36.375 36.375 L 1.125 36.375 Z M 1.125 1.125 " clip-rule="nonzero"/></clipPath></defs><g clip-path="url(#529d6277b2)"><path fill="#7a7df1" d="M 16.679688 15.699219 L 22.09375 18.542969 L 16.679688 21.367188 Z M 36.375 18.75 C 36.375 28.484375 28.484375 36.375 18.75 36.375 C 9.015625 36.375 1.125 28.484375 1.125 18.75 C 1.125 9.015625 9.015625 1.125 18.75 1.125 C 28.484375 1.125 36.375 9.015625 36.375 18.75 Z M 28.765625 17.980469 C 28.765625 16.347656 28.566406 14.714844 28.566406 14.714844 C 28.566406 14.714844 28.371094 13.324219 27.769531 12.710938 C 27.007812 11.90625 26.152344 11.90625 25.761719 11.855469 C 22.957031 11.652344 18.753906 11.652344 18.753906 11.652344 L 18.746094 11.652344 C 18.746094 11.652344 14.539062 11.652344 11.738281 11.855469 C 11.347656 11.902344 10.492188 11.90625 9.730469 12.710938 C 9.128906 13.324219 8.933594 14.714844 8.933594 14.714844 C 8.933594 14.714844 8.734375 16.347656 8.734375 17.980469 L 8.734375 19.511719 C 8.734375 21.144531 8.933594 22.777344 8.933594 22.777344 C 8.933594 22.777344 9.128906 24.167969 9.730469 24.78125 C 10.492188 25.582031 11.492188 25.558594 11.9375 25.640625 C 13.539062 25.796875 18.75 25.84375 18.75 25.84375 C 18.75 25.84375 22.957031 25.835938 25.761719 25.632812 C 26.152344 25.585938 27.003906 25.582031 27.769531 24.78125 C 28.371094 24.167969 28.566406 22.777344 28.566406 22.777344 C 28.566406 22.777344 28.765625 21.144531 28.765625 19.511719 Z M 28.765625 17.980469 " fill-opacity="1" fill-rule="nonzero"/></g></svg>