<svg xmlns="http://www.w3.org/2000/svg" xmlns:xlink="http://www.w3.org/1999/xlink" width="50" zoomAndPan="magnify" viewBox="0 0 37.5 37.499999" height="50" preserveAspectRatio="xMidYMid meet" version="1.0"><defs><clipPath id="e57dc5ef45"><path d="M 1.824219 1.027344 L 35.574219 1.027344 L 35.574219 36.277344 L 1.824219 36.277344 Z M 1.824219 1.027344 " clip-rule="nonzero"/></clipPath></defs><g clip-path="url(#e57dc5ef45)"><path fill="#5f6977" d="M 1.824219 36.265625 C 1.824219 26.234375 9.378906 18.101562 18.699219 18.101562 C 28.015625 18.101562 35.574219 26.234375 35.574219 36.265625 M 18.574219 15.800781 C 22.664062 15.800781 25.976562 12.496094 25.976562 8.417969 C 25.976562 4.34375 22.664062 1.039062 18.574219 1.039062 C 14.488281 1.039062 11.175781 4.34375 11.175781 8.417969 C 11.175781 12.496094 14.488281 15.800781 18.574219 15.800781 Z M 18.574219 15.800781 " fill-opacity="1" fill-rule="nonzero"/></g><path fill="#b2b2b2" d="M 21.808594 18.828125 C 21.808594 18.347656 20.417969 17.957031 18.699219 17.957031 C 16.980469 17.957031 15.585938 18.347656 15.585938 18.828125 C 15.585938 19.078125 15.957031 19.304688 16.550781 19.460938 L 16.550781 29.933594 L 16.515625 29.933594 L 18.699219 32.339844 L 20.878906 29.933594 L 20.84375 29.933594 L 20.84375 19.460938 C 21.441406 19.304688 21.808594 19.078125 21.808594 18.828125 Z M 21.808594 18.828125 " fill-opacity="1" fill-rule="nonzero"/></svg>