<svg xmlns="http://www.w3.org/2000/svg" xmlns:xlink="http://www.w3.org/1999/xlink" width="50" zoomAndPan="magnify" viewBox="0 0 37.5 37.499999" height="50" preserveAspectRatio="xMidYMid meet" version="1.0"><defs><clipPath id="e148684b33"><path d="M 1.3125 1.3125 L 36.5625 1.3125 L 36.5625 36.5625 L 1.3125 36.5625 Z M 1.3125 1.3125 " clip-rule="nonzero"/></clipPath></defs><g clip-path="url(#e148684b33)"><path fill="#7a7df1" d="M 25.058594 21.457031 C 25.121094 21.570312 25.121094 22.105469 24.898438 22.734375 C 24.679688 23.363281 23.796875 23.882812 23.089844 24.035156 C 22.609375 24.136719 21.980469 24.21875 19.863281 23.34375 C 17.15625 22.222656 15.414062 19.46875 15.277344 19.289062 C 15.148438 19.109375 14.183594 17.832031 14.183594 16.511719 C 14.183594 15.1875 14.855469 14.542969 15.128906 14.269531 C 15.347656 14.042969 15.71875 13.9375 16.070312 13.9375 C 16.183594 13.9375 16.285156 13.945312 16.378906 13.949219 C 16.648438 13.960938 16.785156 13.976562 16.964844 14.40625 C 17.1875 14.941406 17.726562 16.261719 17.792969 16.398438 C 17.855469 16.535156 17.921875 16.714844 17.832031 16.898438 C 17.746094 17.078125 17.667969 17.164062 17.53125 17.320312 C 17.398438 17.476562 17.265625 17.597656 17.132812 17.765625 C 17.007812 17.910156 16.867188 18.066406 17.023438 18.339844 C 17.183594 18.605469 17.722656 19.488281 18.519531 20.195312 C 19.550781 21.109375 20.382812 21.40625 20.679688 21.527344 C 20.902344 21.621094 21.167969 21.597656 21.332031 21.425781 C 21.539062 21.203125 21.789062 20.835938 22.050781 20.472656 C 22.234375 20.210938 22.46875 20.179688 22.710938 20.273438 C 22.960938 20.359375 24.277344 21.007812 24.550781 21.144531 C 24.820312 21.28125 25 21.34375 25.0625 21.457031 Z M 36.5625 18.9375 C 36.5625 28.671875 28.671875 36.5625 18.9375 36.5625 C 9.203125 36.5625 1.3125 28.671875 1.3125 18.9375 C 1.3125 9.203125 9.203125 1.3125 18.9375 1.3125 C 28.671875 1.3125 36.5625 9.203125 36.5625 18.9375 Z M 28.75 18.9375 C 28.75 13.855469 24.617188 9.722656 19.539062 9.722656 L 19.535156 9.722656 C 14.453125 9.722656 10.324219 13.855469 10.324219 18.9375 C 10.324219 20.953125 10.972656 22.820312 12.074219 24.335938 L 10.929688 27.761719 L 14.46875 26.628906 C 15.925781 27.59375 17.664062 28.152344 19.539062 28.152344 C 24.617188 28.152344 28.75 24.019531 28.75 18.9375 Z M 28.75 18.9375 " fill-opacity="1" fill-rule="nonzero"/></g></svg>