<svg xmlns="http://www.w3.org/2000/svg" xmlns:xlink="http://www.w3.org/1999/xlink" width="50" zoomAndPan="magnify" viewBox="0 0 37.5 37.499999" height="50" preserveAspectRatio="xMidYMid meet" version="1.0"><defs><clipPath id="2c0c48cded"><path d="M 1.085938 1.085938 L 36.335938 1.085938 L 36.335938 36.335938 L 1.085938 36.335938 Z M 1.085938 1.085938 " clip-rule="nonzero"/></clipPath></defs><g clip-path="url(#2c0c48cded)"><path fill="#5f6977" d="M 18.710938 1.085938 C 8.976562 1.085938 1.085938 8.976562 1.085938 18.710938 C 1.085938 28.445312 8.976562 36.335938 18.710938 36.335938 C 28.445312 36.335938 36.335938 28.445312 36.335938 18.710938 C 36.335938 8.976562 28.445312 1.085938 18.710938 1.085938 Z M 8.425781 21.90625 L 15.195312 10.058594 L 18.316406 15.519531 L 11.546875 27.367188 Z M 25.875 27.832031 L 12.335938 27.832031 L 15.460938 22.359375 L 29 22.359375 Z M 22.753906 21.449219 L 15.980469 9.59375 L 22.226562 9.59375 L 29 21.449219 Z M 22.753906 21.449219 " fill-opacity="1" fill-rule="nonzero"/></g></svg>