<svg xmlns="http://www.w3.org/2000/svg" xmlns:xlink="http://www.w3.org/1999/xlink" width="50" zoomAndPan="magnify" viewBox="0 0 37.5 37.499999" height="50" preserveAspectRatio="xMidYMid meet" version="1.0"><defs><clipPath id="9434d58db8"><path d="M 1.085938 1.085938 L 36.335938 1.085938 L 36.335938 36.335938 L 1.085938 36.335938 Z M 1.085938 1.085938 " clip-rule="nonzero"/></clipPath></defs><g clip-path="url(#9434d58db8)"><path fill="#5f6977" d="M 18.703125 4.265625 C 23.410156 4.265625 23.964844 4.28125 25.824219 4.367188 C 27.539062 4.441406 28.476562 4.730469 29.101562 4.976562 C 29.917969 5.292969 30.507812 5.679688 31.125 6.296875 C 31.742188 6.914062 32.121094 7.5 32.445312 8.320312 C 32.683594 8.9375 32.96875 9.871094 33.054688 11.59375 C 33.140625 13.457031 33.15625 14.011719 33.15625 18.714844 C 33.15625 23.421875 33.140625 23.976562 33.054688 25.835938 C 32.976562 27.550781 32.691406 28.488281 32.445312 29.113281 C 32.128906 29.929688 31.742188 30.519531 31.125 31.136719 C 30.507812 31.753906 29.917969 32.132812 29.101562 32.457031 C 28.484375 32.695312 27.546875 32.980469 25.824219 33.066406 C 23.964844 33.152344 23.410156 33.167969 18.703125 33.167969 C 14 33.167969 13.445312 33.152344 11.582031 33.066406 C 9.867188 32.988281 8.933594 32.703125 8.308594 32.457031 C 7.492188 32.140625 6.902344 31.753906 6.285156 31.136719 C 5.667969 30.519531 5.289062 29.929688 4.964844 29.113281 C 4.726562 28.496094 4.441406 27.558594 4.355469 25.835938 C 4.269531 23.976562 4.253906 23.421875 4.253906 18.714844 C 4.253906 14.011719 4.269531 13.457031 4.355469 11.59375 C 4.433594 9.878906 4.71875 8.945312 4.964844 8.320312 C 5.28125 7.5 5.667969 6.914062 6.285156 6.296875 C 6.902344 5.679688 7.492188 5.300781 8.308594 4.976562 C 8.925781 4.738281 9.863281 4.449219 11.582031 4.367188 C 13.445312 4.28125 14 4.265625 18.703125 4.265625 M 18.703125 1.089844 C 13.917969 1.089844 13.320312 1.113281 11.4375 1.199219 C 9.558594 1.285156 8.277344 1.585938 7.15625 2.019531 C 6 2.464844 5.019531 3.070312 4.039062 4.050781 C 3.066406 5.03125 2.460938 6.011719 2.015625 7.167969 C 1.582031 8.289062 1.28125 9.570312 1.195312 11.449219 C 1.109375 13.324219 1.085938 13.929688 1.085938 18.707031 C 1.085938 23.496094 1.109375 24.09375 1.195312 25.976562 C 1.28125 27.851562 1.582031 29.136719 2.015625 30.253906 C 2.460938 31.414062 3.066406 32.394531 4.046875 33.375 C 5.027344 34.355469 6.007812 34.957031 7.164062 35.40625 C 8.285156 35.839844 9.566406 36.140625 11.445312 36.226562 C 13.320312 36.308594 13.925781 36.332031 18.710938 36.332031 C 23.5 36.332031 24.097656 36.308594 25.980469 36.226562 C 27.855469 36.140625 29.140625 35.839844 30.257812 35.40625 C 31.417969 34.957031 32.398438 34.355469 33.378906 33.375 C 34.359375 32.394531 34.960938 31.414062 35.410156 30.253906 C 35.84375 29.136719 36.144531 27.851562 36.230469 25.976562 C 36.3125 24.101562 36.335938 23.496094 36.335938 18.707031 C 36.335938 13.921875 36.3125 13.324219 36.230469 11.441406 C 36.144531 9.5625 35.84375 8.28125 35.410156 7.160156 C 34.960938 6.003906 34.359375 5.023438 33.378906 4.042969 C 32.398438 3.0625 31.417969 2.457031 30.257812 2.011719 C 29.140625 1.578125 27.855469 1.277344 25.980469 1.191406 C 24.097656 1.113281 23.492188 1.089844 18.703125 1.089844 " fill-opacity="1" fill-rule="nonzero"/></g><path fill="#5f6977" d="M 18.703125 9.664062 C 13.707031 9.664062 9.660156 13.710938 9.660156 18.707031 C 9.660156 23.707031 13.714844 27.761719 18.710938 27.761719 C 23.710938 27.761719 27.765625 23.714844 27.765625 18.707031 C 27.757812 13.710938 23.703125 9.664062 18.703125 9.664062 M 18.703125 24.585938 C 15.460938 24.585938 12.835938 21.960938 12.835938 18.714844 C 12.835938 15.472656 15.460938 12.847656 18.703125 12.847656 C 21.949219 12.847656 24.574219 15.472656 24.574219 18.714844 C 24.582031 21.953125 21.949219 24.585938 18.703125 24.585938 " fill-opacity="1" fill-rule="nonzero"/><path fill="#5f6977" d="M 30.226562 9.308594 C 30.226562 10.476562 29.277344 11.425781 28.113281 11.425781 C 26.945312 11.425781 25.996094 10.476562 25.996094 9.308594 C 25.996094 8.144531 26.945312 7.191406 28.113281 7.191406 C 29.277344 7.191406 30.226562 8.136719 30.226562 9.308594 " fill-opacity="1" fill-rule="nonzero"/></svg>