<svg xmlns="http://www.w3.org/2000/svg" xmlns:xlink="http://www.w3.org/1999/xlink" width="50" zoomAndPan="magnify" viewBox="0 0 37.5 37.499999" height="50" preserveAspectRatio="xMidYMid meet" version="1.0"><path fill="#5f6977" d="M 14.355469 26.128906 C 14.792969 26.132812 15.230469 26.109375 15.667969 26.0625 C 16.105469 26.015625 16.539062 25.945312 16.964844 25.847656 C 17.394531 25.753906 17.816406 25.636719 18.234375 25.496094 C 18.648438 25.355469 19.058594 25.195312 19.457031 25.007812 C 19.855469 24.824219 20.242188 24.617188 20.617188 24.390625 C 20.992188 24.160156 21.355469 23.914062 21.703125 23.648438 C 22.050781 23.378906 22.386719 23.09375 22.703125 22.792969 C 23.019531 22.488281 23.320312 22.167969 23.601562 21.832031 C 23.882812 21.496094 24.148438 21.144531 24.390625 20.78125 C 24.636719 20.414062 24.859375 20.035156 25.0625 19.648438 C 25.265625 19.257812 25.445312 18.859375 25.605469 18.449219 C 25.765625 18.039062 25.898438 17.621094 26.011719 17.199219 C 26.125 16.773438 26.21875 16.34375 26.285156 15.910156 C 26.351562 15.476562 26.390625 15.039062 26.410156 14.601562 C 26.429688 14.160156 26.425781 13.722656 26.394531 13.285156 C 26.367188 12.847656 26.3125 12.410156 26.234375 11.980469 C 26.160156 11.546875 26.058594 11.121094 25.933594 10.699219 C 25.8125 10.277344 25.664062 9.863281 25.496094 9.457031 C 25.328125 9.050781 25.136719 8.65625 24.925781 8.273438 C 24.710938 7.886719 24.480469 7.515625 24.226562 7.15625 C 23.976562 6.796875 23.703125 6.453125 23.414062 6.125 C 23.121094 5.792969 22.816406 5.480469 22.488281 5.1875 C 22.164062 4.890625 21.824219 4.613281 21.46875 4.355469 C 21.113281 4.097656 20.746094 3.855469 20.367188 3.640625 C 19.984375 3.421875 19.59375 3.222656 19.191406 3.046875 C 18.789062 2.871094 18.375 2.71875 17.957031 2.589844 C 17.539062 2.457031 17.113281 2.351562 16.679688 2.269531 C 16.25 2.183594 15.816406 2.125 15.378906 2.085938 C 14.941406 2.050781 14.503906 2.039062 14.0625 2.050781 C 13.625 2.0625 13.1875 2.097656 12.75 2.15625 C 12.316406 2.214844 11.886719 2.296875 11.460938 2.40625 C 11.035156 2.511719 10.613281 2.640625 10.203125 2.792969 C 9.789062 2.945312 9.386719 3.121094 8.996094 3.316406 C 8.601562 3.511719 8.222656 3.730469 7.851562 3.96875 C 7.484375 4.207031 7.128906 4.464844 6.789062 4.742188 C 6.445312 5.015625 6.121094 5.3125 5.8125 5.625 C 5.503906 5.9375 5.214844 6.265625 4.941406 6.609375 C 4.667969 6.953125 4.414062 7.3125 4.179688 7.683594 C 3.949219 8.054688 3.734375 8.4375 3.542969 8.835938 C 3.351562 9.230469 3.183594 9.632812 3.035156 10.046875 C 2.886719 10.460938 2.761719 10.882812 2.660156 11.308594 C 2.558594 11.738281 2.484375 12.167969 2.429688 12.605469 C 2.375 13.039062 2.34375 13.476562 2.339844 13.917969 C 2.332031 14.355469 2.347656 14.792969 2.390625 15.230469 C 2.433594 15.667969 2.5 16.101562 2.585938 16.53125 C 2.675781 16.960938 2.789062 17.386719 2.925781 17.804688 C 3.058594 18.222656 3.21875 18.632812 3.398438 19.03125 C 3.578125 19.433594 3.78125 19.820312 4.003906 20.199219 L 2.378906 25.074219 C 2.335938 25.199219 2.328125 25.324219 2.347656 25.449219 C 2.367188 25.578125 2.414062 25.695312 2.488281 25.796875 C 2.5625 25.902344 2.660156 25.984375 2.773438 26.042969 C 2.886719 26.101562 3.007812 26.128906 3.136719 26.128906 C 3.226562 26.128906 3.308594 26.117188 3.390625 26.089844 L 8.265625 24.464844 C 10.144531 25.574219 12.171875 26.128906 14.355469 26.128906 Z M 4.40625 24.0625 L 5.640625 20.355469 C 5.722656 20.113281 5.695312 19.886719 5.558594 19.671875 C 5.332031 19.3125 5.125 18.941406 4.945312 18.558594 C 4.761719 18.175781 4.605469 17.785156 4.472656 17.382812 C 4.339844 16.980469 4.230469 16.570312 4.144531 16.152344 C 4.0625 15.738281 4.003906 15.320312 3.96875 14.894531 C 3.9375 14.472656 3.929688 14.050781 3.949219 13.625 C 3.96875 13.203125 4.011719 12.78125 4.082031 12.363281 C 4.152344 11.945312 4.246094 11.535156 4.367188 11.125 C 4.488281 10.71875 4.632812 10.320312 4.800781 9.933594 C 4.96875 9.542969 5.160156 9.167969 5.375 8.800781 C 5.589844 8.433594 5.828125 8.085938 6.085938 7.746094 C 6.34375 7.410156 6.617188 7.089844 6.914062 6.789062 C 7.210938 6.484375 7.527344 6.199219 7.855469 5.933594 C 8.1875 5.671875 8.535156 5.425781 8.894531 5.203125 C 9.253906 4.980469 9.628906 4.78125 10.011719 4.601562 C 10.398438 4.425781 10.792969 4.273438 11.195312 4.144531 C 11.601562 4.015625 12.011719 3.910156 12.429688 3.832031 C 12.84375 3.75 13.265625 3.699219 13.6875 3.667969 C 14.109375 3.640625 14.535156 3.640625 14.957031 3.664062 C 15.378906 3.6875 15.800781 3.734375 16.21875 3.808594 C 16.636719 3.882812 17.046875 3.984375 17.453125 4.109375 C 17.859375 4.234375 18.253906 4.382812 18.640625 4.554688 C 19.027344 4.726562 19.402344 4.925781 19.765625 5.144531 C 20.128906 5.363281 20.476562 5.601562 20.8125 5.863281 C 21.144531 6.125 21.464844 6.40625 21.761719 6.703125 C 22.0625 7.003906 22.34375 7.320312 22.605469 7.65625 C 22.867188 7.988281 23.105469 8.339844 23.324219 8.703125 C 23.542969 9.066406 23.738281 9.441406 23.914062 9.828125 C 24.085938 10.214844 24.234375 10.609375 24.359375 11.015625 C 24.484375 11.421875 24.582031 11.832031 24.65625 12.25 C 24.734375 12.667969 24.78125 13.085938 24.804688 13.511719 C 24.828125 13.933594 24.828125 14.355469 24.796875 14.78125 C 24.769531 15.203125 24.714844 15.625 24.636719 16.039062 C 24.558594 16.457031 24.453125 16.867188 24.324219 17.269531 C 24.195312 17.675781 24.042969 18.070312 23.863281 18.453125 C 23.6875 18.839844 23.488281 19.210938 23.265625 19.574219 C 23.042969 19.933594 22.796875 20.28125 22.53125 20.609375 C 22.269531 20.941406 21.984375 21.253906 21.679688 21.550781 C 21.378906 21.847656 21.058594 22.125 20.71875 22.382812 C 20.382812 22.640625 20.03125 22.875 19.667969 23.089844 C 19.300781 23.304688 18.921875 23.496094 18.535156 23.667969 C 18.144531 23.835938 17.746094 23.980469 17.339844 24.101562 C 16.933594 24.21875 16.523438 24.316406 16.105469 24.386719 C 15.683594 24.457031 15.265625 24.5 14.839844 24.519531 C 14.417969 24.535156 13.992188 24.53125 13.570312 24.496094 C 13.148438 24.464844 12.730469 24.40625 12.3125 24.320312 C 11.898438 24.238281 11.488281 24.128906 11.085938 23.996094 C 10.683594 23.863281 10.292969 23.703125 9.910156 23.523438 C 9.523438 23.339844 9.15625 23.136719 8.796875 22.910156 C 8.664062 22.828125 8.523438 22.785156 8.367188 22.785156 C 8.28125 22.785156 8.195312 22.800781 8.113281 22.828125 Z M 35.984375 23.726562 C 35.984375 25.90625 35.429688 27.9375 34.316406 29.8125 L 35.941406 34.691406 C 35.984375 34.8125 35.996094 34.9375 35.976562 35.0625 C 35.957031 35.191406 35.910156 35.308594 35.832031 35.410156 C 35.757812 35.515625 35.664062 35.597656 35.546875 35.65625 C 35.433594 35.714844 35.3125 35.746094 35.183594 35.746094 C 35.097656 35.746094 35.011719 35.730469 34.929688 35.703125 L 30.054688 34.078125 C 29.6875 34.292969 29.3125 34.492188 28.925781 34.667969 C 28.535156 34.84375 28.140625 35 27.738281 35.132812 C 27.332031 35.265625 26.925781 35.378906 26.507812 35.46875 C 26.09375 35.558594 25.671875 35.628906 25.25 35.675781 C 24.828125 35.71875 24.402344 35.742188 23.976562 35.746094 C 23.550781 35.746094 23.128906 35.722656 22.703125 35.679688 C 22.28125 35.632812 21.863281 35.566406 21.445312 35.480469 C 21.03125 35.390625 20.621094 35.277344 20.214844 35.144531 C 19.8125 35.011719 19.414062 34.859375 19.027344 34.683594 C 18.640625 34.507812 18.261719 34.3125 17.894531 34.097656 C 17.527344 33.882812 17.171875 33.648438 16.832031 33.398438 C 16.488281 33.144531 16.160156 32.875 15.847656 32.585938 C 15.535156 32.296875 15.238281 31.996094 14.957031 31.675781 C 14.675781 31.355469 14.410156 31.023438 14.164062 30.675781 C 13.917969 30.328125 13.691406 29.96875 13.484375 29.597656 C 13.277344 29.226562 13.089844 28.84375 12.925781 28.453125 C 13.398438 28.503906 13.875 28.53125 14.355469 28.535156 C 14.484375 28.535156 14.613281 28.519531 14.746094 28.515625 C 15.074219 29.15625 15.464844 29.753906 15.921875 30.316406 C 16.375 30.875 16.882812 31.378906 17.441406 31.832031 C 18.003906 32.285156 18.601562 32.675781 19.246094 33.003906 C 19.886719 33.332031 20.554688 33.59375 21.25 33.78125 C 21.945312 33.96875 22.652344 34.085938 23.371094 34.125 C 24.09375 34.167969 24.808594 34.132812 25.519531 34.023438 C 26.234375 33.917969 26.925781 33.734375 27.601562 33.484375 C 28.277344 33.230469 28.917969 32.910156 29.527344 32.523438 C 29.738281 32.386719 29.96875 32.359375 30.207031 32.441406 L 33.917969 33.675781 L 32.679688 29.96875 C 32.601562 29.726562 32.628906 29.5 32.765625 29.285156 C 33.148438 28.675781 33.46875 28.035156 33.722656 27.359375 C 33.976562 26.6875 34.15625 25.992188 34.265625 25.28125 C 34.375 24.566406 34.40625 23.851562 34.367188 23.132812 C 34.324219 22.414062 34.210938 21.707031 34.019531 21.011719 C 33.832031 20.3125 33.574219 19.644531 33.246094 19.003906 C 32.917969 18.363281 32.527344 17.761719 32.074219 17.203125 C 31.621094 16.640625 31.113281 16.132812 30.554688 15.679688 C 29.996094 15.226562 29.394531 14.832031 28.753906 14.503906 C 28.757812 14.371094 28.773438 14.246094 28.773438 14.113281 C 28.773438 13.632812 28.75 13.15625 28.703125 12.6875 C 29.78125 13.15625 30.769531 13.765625 31.667969 14.519531 C 32.566406 15.277344 33.339844 16.144531 33.988281 17.125 C 34.632812 18.105469 35.128906 19.15625 35.46875 20.28125 C 35.808594 21.402344 35.980469 22.554688 35.984375 23.726562 Z M 35.984375 23.726562 " fill-opacity="1" fill-rule="nonzero"/></svg>