<svg xmlns="http://www.w3.org/2000/svg" xmlns:xlink="http://www.w3.org/1999/xlink" width="50" zoomAndPan="magnify" viewBox="0 0 37.5 37.499999" height="50" preserveAspectRatio="xMidYMid meet" version="1.0"><defs><clipPath id="b515962e4f"><path d="M 1.199219 1.199219 L 36.449219 1.199219 L 36.449219 36.449219 L 1.199219 36.449219 Z M 1.199219 1.199219 " clip-rule="nonzero"/></clipPath></defs><g clip-path="url(#b515962e4f)"><path fill="#5f6977" d="M 18.824219 4.726562 C 26.613281 4.726562 32.925781 11.039062 32.925781 18.824219 C 32.925781 21.058594 32.40625 23.167969 31.484375 25.042969 C 31.230469 25.558594 31.136719 26.160156 31.261719 26.757812 L 32.433594 32.472656 L 26.488281 31.359375 C 25.917969 31.253906 25.347656 31.339844 24.855469 31.574219 C 23.027344 32.441406 20.984375 32.925781 18.824219 32.925781 C 11.039062 32.925781 4.726562 26.613281 4.726562 18.824219 C 4.726562 11.039062 11.039062 4.726562 18.824219 4.726562 Z M 36.449219 18.824219 C 36.449219 9.089844 28.558594 1.199219 18.824219 1.199219 C 9.089844 1.199219 1.199219 9.089844 1.199219 18.824219 C 1.199219 28.558594 9.089844 36.449219 18.824219 36.449219 C 21.421875 36.449219 23.890625 35.886719 26.113281 34.875 L 33.074219 36.179688 C 34.921875 36.523438 36.527344 34.886719 36.148438 33.046875 L 34.773438 26.335938 C 35.847656 24.054688 36.449219 21.507812 36.449219 18.824219 Z M 36.449219 18.824219 " fill-opacity="1" fill-rule="evenodd"/></g><path fill="#5f6977" d="M 6.488281 18.824219 C 6.488281 16.878906 8.066406 15.300781 10.011719 15.300781 C 11.960938 15.300781 13.539062 16.878906 13.539062 18.824219 C 13.539062 20.773438 11.960938 22.351562 10.011719 22.351562 C 8.066406 22.351562 6.488281 20.773438 6.488281 18.824219 Z M 6.488281 18.824219 " fill-opacity="1" fill-rule="evenodd"/><path fill="#5f6977" d="M 15.300781 18.824219 C 15.300781 16.878906 16.878906 15.300781 18.824219 15.300781 C 20.773438 15.300781 22.351562 16.878906 22.351562 18.824219 C 22.351562 20.773438 20.773438 22.351562 18.824219 22.351562 C 16.878906 22.351562 15.300781 20.773438 15.300781 18.824219 Z M 15.300781 18.824219 " fill-opacity="1" fill-rule="evenodd"/><path fill="#5f6977" d="M 24.113281 18.824219 C 24.113281 16.878906 25.691406 15.300781 27.636719 15.300781 C 29.585938 15.300781 31.164062 16.878906 31.164062 18.824219 C 31.164062 20.773438 29.585938 22.351562 27.636719 22.351562 C 25.691406 22.351562 24.113281 20.773438 24.113281 18.824219 Z M 24.113281 18.824219 " fill-opacity="1" fill-rule="evenodd"/></svg>