<svg xmlns="http://www.w3.org/2000/svg" xmlns:xlink="http://www.w3.org/1999/xlink" width="50" zoomAndPan="magnify" viewBox="0 0 37.5 37.499999" height="50" preserveAspectRatio="xMidYMid meet" version="1.0"><defs><clipPath id="5c97ec0b06"><path d="M 1.25 1.25 L 36.25 1.25 L 36.25 36.25 L 1.25 36.25 Z M 1.25 1.25 " clip-rule="nonzero"/></clipPath><clipPath id="e95f769d52"><path d="M 29.652344 36.25 L 7.847656 36.25 C 4.210938 36.25 1.25 33.289062 1.25 29.652344 L 1.25 7.847656 C 1.25 4.210938 4.210938 1.25 7.847656 1.25 L 29.652344 1.25 C 33.289062 1.25 36.25 4.210938 36.25 7.847656 L 36.25 29.652344 C 36.25 33.289062 33.289062 36.25 29.652344 36.25 " clip-rule="nonzero"/></clipPath><clipPath id="f356e03139"><path d="M 11 14 L 26 14 L 26 23 L 11 23 Z M 11 14 " clip-rule="nonzero"/></clipPath><clipPath id="958ae097ae"><path d="M 25.886719 14.617188 L 25.730469 23.5 L 11.664062 23.246094 L 11.820312 14.363281 Z M 25.886719 14.617188 " clip-rule="nonzero"/></clipPath><clipPath id="8a477dfc9e"><path d="M 25.734375 23.128906 L 25.894531 14.246094 L 11.828125 13.992188 L 11.667969 22.878906 Z M 25.734375 23.128906 " clip-rule="nonzero"/></clipPath><clipPath id="e817e1e2eb"><path d="M 25.734375 23.128906 L 25.894531 14.246094 L 11.828125 13.992188 L 11.667969 22.878906 Z M 25.734375 23.128906 " clip-rule="nonzero"/></clipPath></defs><g clip-path="url(#5c97ec0b06)"><g clip-path="url(#e95f769d52)"><path fill="#7a7df1" d="M 1.25 1.25 L 36.25 1.25 L 36.25 36.25 L 1.25 36.25 Z M 1.25 1.25 " fill-opacity="1" fill-rule="nonzero"/></g></g><g clip-path="url(#f356e03139)"><g clip-path="url(#958ae097ae)"><g clip-path="url(#8a477dfc9e)"><g clip-path="url(#e817e1e2eb)"><path fill="#ffffff" d="M 11.8125 15.542969 L 18.679688 23 L 25.859375 15.746094 L 24.453125 14.21875 L 18.734375 20 L 13.273438 14.070312 L 11.8125 15.542969 " fill-opacity="1" fill-rule="nonzero"/></g></g></g></g></svg>