<svg xmlns="http://www.w3.org/2000/svg" xmlns:xlink="http://www.w3.org/1999/xlink" width="50" zoomAndPan="magnify" viewBox="0 0 37.5 37.499999" height="50" preserveAspectRatio="xMidYMid meet" version="1.0"><defs><clipPath id="be04c51a1b"><path d="M 0.421875 9.347656 L 37.007812 9.347656 L 37.007812 28.097656 L 0.421875 28.097656 Z M 0.421875 9.347656 " clip-rule="nonzero"/></clipPath></defs><g clip-path="url(#be04c51a1b)"><path fill="#5f6977" d="M 11.0625 18.21875 C 11.0625 18.792969 11.527344 19.257812 12.105469 19.257812 C 12.683594 19.257812 13.148438 18.792969 13.148438 18.21875 C 13.148438 17.644531 12.683594 17.179688 12.105469 17.179688 C 11.527344 17.179688 11.0625 17.644531 11.0625 18.21875 Z M 7.972656 18.21875 C 7.972656 18.792969 8.441406 19.257812 9.015625 19.257812 C 9.59375 19.257812 10.058594 18.792969 10.058594 18.21875 C 10.058594 17.644531 9.59375 17.179688 9.015625 17.179688 C 8.441406 17.179688 7.972656 17.644531 7.972656 18.21875 Z M 4.859375 18.21875 C 4.859375 18.792969 5.324219 19.257812 5.902344 19.257812 C 6.476562 19.257812 6.945312 18.792969 6.945312 18.21875 C 6.945312 17.644531 6.476562 17.179688 5.902344 17.179688 C 5.324219 17.179688 4.859375 17.644531 4.859375 18.21875 Z M 8.582031 25.125 C 8.03125 25.058594 7.492188 24.929688 6.976562 24.742188 C 6.820312 24.683594 6.644531 24.683594 6.488281 24.742188 L 2.40625 26.210938 L 3.667969 22.785156 C 3.746094 22.566406 3.714844 22.324219 3.582031 22.136719 C 2.578125 20.703125 2.140625 18.960938 2.351562 17.226562 C 2.578125 15.34375 3.53125 13.660156 5.03125 12.488281 C 6.53125 11.320312 8.398438 10.796875 10.289062 11.027344 C 11.53125 11.175781 12.714844 11.644531 13.710938 12.386719 L 14.5625 11.253906 C 13.371094 10.363281 11.949219 9.800781 10.460938 9.621094 C 8.191406 9.347656 5.949219 9.972656 4.152344 11.375 C 2.351562 12.78125 1.210938 14.796875 0.9375 17.054688 C 0.703125 19.011719 1.152344 20.980469 2.207031 22.636719 L 0.546875 27.148438 C 0.453125 27.40625 0.515625 27.695312 0.710938 27.890625 C 0.847656 28.027344 1.027344 28.101562 1.214844 28.101562 C 1.296875 28.101562 1.378906 28.085938 1.457031 28.058594 L 6.734375 26.15625 C 7.277344 26.335938 7.839844 26.460938 8.414062 26.53125 C 8.757812 26.570312 9.105469 26.59375 9.449219 26.59375 C 11.65625 26.59375 13.777344 25.746094 15.390625 24.195312 L 14.402344 23.175781 C 12.847656 24.671875 10.726562 25.382812 8.582031 25.125 Z M 37.140625 16.804688 L 37.140625 15.621094 L 34.957031 15.621094 L 34.957031 13.066406 L 33.566406 13.515625 L 33.566406 15.621094 L 32.074219 15.621094 L 32.074219 16.804688 L 33.566406 16.804688 L 33.566406 21.914062 C 33.566406 23.597656 34.324219 24.441406 35.847656 24.441406 C 36.382812 24.441406 36.816406 24.351562 37.140625 24.171875 L 37.140625 22.992188 C 36.886719 23.183594 36.585938 23.277344 36.234375 23.277344 C 35.777344 23.277344 35.449219 23.15625 35.253906 22.90625 C 35.054688 22.660156 34.957031 22.246094 34.957031 21.667969 L 34.957031 16.804688 Z M 30.148438 19.890625 L 28.058594 20.175781 C 27.414062 20.265625 26.925781 20.425781 26.597656 20.652344 C 26.273438 20.878906 26.109375 21.285156 26.109375 21.863281 C 26.109375 22.285156 26.257812 22.628906 26.5625 22.894531 C 26.863281 23.164062 27.265625 23.296875 27.769531 23.296875 C 28.457031 23.296875 29.027344 23.054688 29.476562 22.574219 C 29.925781 22.09375 30.148438 21.484375 30.148438 20.75 Z M 31.539062 18.640625 L 31.539062 24.257812 L 30.148438 24.257812 L 30.148438 22.90625 L 30.117188 22.90625 C 29.511719 23.941406 28.621094 24.460938 27.445312 24.460938 C 26.582031 24.460938 25.90625 24.230469 25.417969 23.777344 C 24.929688 23.320312 24.683594 22.714844 24.683594 21.964844 C 24.683594 20.351562 25.640625 19.410156 27.546875 19.148438 L 30.148438 18.785156 C 30.148438 17.316406 29.554688 16.582031 28.363281 16.582031 C 27.316406 16.582031 26.375 16.9375 25.53125 17.648438 L 25.53125 16.230469 C 26.386719 15.691406 27.367188 15.421875 28.480469 15.421875 C 30.519531 15.421875 31.539062 16.496094 31.539062 18.640625 Z M 23.75 18.9375 L 23.75 24.257812 L 22.363281 24.257812 L 22.363281 19.28125 C 22.363281 17.484375 21.6875 16.582031 20.34375 16.582031 C 19.667969 16.582031 19.097656 16.84375 18.632812 17.363281 C 18.167969 17.882812 17.9375 18.550781 17.9375 19.367188 L 17.9375 24.257812 L 16.546875 24.257812 L 16.546875 11.476562 L 17.9375 11.476562 L 17.9375 17.054688 L 17.972656 17.054688 C 18.636719 15.964844 19.585938 15.421875 20.820312 15.421875 C 22.773438 15.421875 23.75 16.59375 23.75 18.9375 " fill-opacity="1" fill-rule="nonzero"/></g></svg>