<svg xmlns="http://www.w3.org/2000/svg" xmlns:xlink="http://www.w3.org/1999/xlink" width="50" zoomAndPan="magnify" viewBox="0 0 37.5 37.499999" height="50" preserveAspectRatio="xMidYMid meet" version="1.0"><defs><clipPath id="ef823036fa"><path d="M 1.164062 1.164062 L 36.414062 1.164062 L 36.414062 36.414062 L 1.164062 36.414062 Z M 1.164062 1.164062 " clip-rule="nonzero"/></clipPath></defs><g clip-path="url(#ef823036fa)"><path fill="#5f6977" d="M 23.820312 26.9375 L 32.453125 35.570312 C 33.308594 36.425781 34.695312 36.425781 35.550781 35.570312 C 36.40625 34.714844 36.40625 33.324219 35.550781 32.472656 L 26.921875 23.847656 C 28.660156 21.484375 29.683594 18.570312 29.683594 15.417969 C 29.683594 7.550781 23.296875 1.164062 15.429688 1.164062 C 7.5625 1.164062 1.175781 7.550781 1.175781 15.417969 C 1.175781 23.285156 7.5625 29.671875 15.429688 29.671875 C 18.566406 29.671875 21.464844 28.65625 23.820312 26.9375 Z M 15.429688 5.542969 C 20.878906 5.542969 25.304688 9.96875 25.304688 15.417969 C 25.304688 20.867188 20.878906 25.289062 15.429688 25.289062 C 9.980469 25.289062 5.558594 20.867188 5.558594 15.417969 C 5.558594 9.96875 9.980469 5.542969 15.429688 5.542969 Z M 15.429688 5.542969 " fill-opacity="1" fill-rule="evenodd"/></g></svg>