<svg xmlns="http://www.w3.org/2000/svg" xmlns:xlink="http://www.w3.org/1999/xlink" width="50" zoomAndPan="magnify" viewBox="0 0 37.5 37.499999" height="50" preserveAspectRatio="xMidYMid meet" version="1.0"><defs><g/><clipPath id="0740f82081"><path d="M 9 5.429688 L 28.390625 5.429688 L 28.390625 25.679688 L 9 25.679688 Z M 9 5.429688 " clip-rule="nonzero"/></clipPath><clipPath id="bc9c790df3"><path d="M 9 5.429688 L 23 5.429688 L 23 25.679688 L 9 25.679688 Z M 9 5.429688 " clip-rule="nonzero"/></clipPath></defs><g clip-path="url(#0740f82081)"><path fill="#f6f9ff" d="M 27.515625 25.503906 L 21.601562 23.25 C 21.476562 23.203125 21.375 23.109375 21.316406 22.988281 L 19.128906 18.570312 C 18.929688 18.171875 18.371094 18.175781 18.179688 18.578125 L 16.074219 22.949219 C 16.011719 23.070312 15.910156 23.167969 15.78125 23.214844 L 9.761719 25.511719 C 9.3125 25.679688 8.890625 25.207031 9.097656 24.765625 L 18.039062 5.839844 C 18.230469 5.433594 18.792969 5.433594 18.988281 5.835938 L 28.175781 24.753906 C 28.390625 25.191406 27.964844 25.675781 27.515625 25.503906 " fill-opacity="1" fill-rule="nonzero"/></g><g clip-path="url(#bc9c790df3)"><path fill="#b2b2b2" d="M 22.488281 13.039062 C 20.648438 14.332031 19.210938 16.175781 18.398438 18.339844 C 18.308594 18.390625 18.230469 18.46875 18.179688 18.578125 L 16.074219 22.949219 C 16.011719 23.070312 15.910156 23.167969 15.78125 23.214844 L 9.761719 25.511719 C 9.3125 25.679688 8.890625 25.207031 9.097656 24.765625 L 18.039062 5.839844 C 18.230469 5.433594 18.792969 5.433594 18.988281 5.835938 L 22.488281 13.039062 " fill-opacity="1" fill-rule="nonzero"/></g><path fill="#b2b2b2" d="M 18.398438 18.339844 C 18.460938 18.304688 18.535156 18.28125 18.605469 18.277344 C 18.535156 18.28125 18.460938 18.304688 18.398438 18.339844 M 18.605469 18.277344 L 18.605469 18.277344 M 18.609375 18.277344 L 18.609375 18.277344 M 22.632812 13.339844 L 22.488281 13.039062 L 22.632812 13.339844 " fill-opacity="1" fill-rule="nonzero"/><path fill="#a6a6a6" d="M 19.769531 19.871094 L 19.128906 18.570312 C 19.03125 18.375 18.84375 18.273438 18.65625 18.273438 C 18.640625 18.273438 18.625 18.273438 18.609375 18.277344 C 18.605469 18.277344 18.605469 18.277344 18.605469 18.277344 C 18.535156 18.28125 18.460938 18.304688 18.398438 18.339844 C 19.210938 16.175781 20.648438 14.332031 22.488281 13.039062 L 22.632812 13.339844 L 22.652344 13.378906 C 20.933594 14.859375 19.394531 17.726562 19.769531 19.871094 " fill-opacity="1" fill-rule="nonzero"/><g fill="#a6a6a6" fill-opacity="0.4"><g transform="translate(5.899104, 31.112715)"><g/></g></g><g fill="#ffffff" fill-opacity="1"><g transform="translate(5.676527, 30.890139)"><g/></g></g><g fill="#a6a6a6" fill-opacity="0.4"><g transform="translate(7.702479, 31.112715)"><g><path d="M 4.6875 0 L 4.3125 0 L 1.046875 -2.65625 L 1.046875 0 L 0.484375 0 L 0.484375 -3.515625 L 0.875 -3.515625 L 4.125 -0.875 L 4.125 -3.515625 L 4.6875 -3.515625 Z M 4.6875 0 "/></g></g></g><g fill="#a6a6a6" fill-opacity="0.4"><g transform="translate(13.447855, 31.112715)"><g><path d="M 5.140625 0 L 4.453125 0 L 3.9375 -0.765625 L 1.265625 -0.765625 L 0.75 0 L 0.078125 0 L 2.453125 -3.515625 L 2.75 -3.515625 Z M 3.5625 -1.328125 L 2.609375 -2.75 L 1.640625 -1.328125 Z M 3.5625 -1.328125 "/></g></g></g><g fill="#a6a6a6" fill-opacity="0.4"><g transform="translate(19.222741, 31.112715)"><g><path d="M 2.75 0 L 2.453125 0 L 0.078125 -3.515625 L 0.75 -3.515625 L 2.609375 -0.78125 L 4.453125 -3.515625 L 5.140625 -3.515625 Z M 2.75 0 "/></g></g></g><g fill="#a6a6a6" fill-opacity="0.4"><g transform="translate(25.002545, 31.112715)"><g><path d="M 1.046875 0 L 1.046875 -3.515625 L 0.484375 -3.515625 L 0.484375 0 Z M 1.046875 0 "/></g></g></g><g fill="#a6a6a6" fill-opacity="0.4"><g transform="translate(27.105923, 31.112715)"><g><path d="M 3.734375 0 L 1.203125 0 C 0.972656 0 0.773438 -0.078125 0.609375 -0.234375 C 0.453125 -0.398438 0.375 -0.601562 0.375 -0.84375 L 0.921875 -0.84375 C 0.921875 -0.757812 0.945312 -0.691406 1 -0.640625 C 1.0625 -0.585938 1.128906 -0.5625 1.203125 -0.5625 L 3.734375 -0.5625 C 3.804688 -0.5625 3.867188 -0.585938 3.921875 -0.640625 C 3.972656 -0.691406 4 -0.757812 4 -0.84375 L 4 -1.203125 C 4 -1.273438 3.972656 -1.335938 3.921875 -1.390625 C 3.867188 -1.453125 3.804688 -1.484375 3.734375 -1.484375 L 1.203125 -1.484375 C 0.972656 -1.484375 0.773438 -1.5625 0.609375 -1.71875 C 0.453125 -1.882812 0.375 -2.085938 0.375 -2.328125 L 0.375 -2.6875 C 0.375 -2.914062 0.453125 -3.109375 0.609375 -3.265625 C 0.773438 -3.429688 0.972656 -3.515625 1.203125 -3.515625 L 3.734375 -3.515625 C 3.960938 -3.515625 4.15625 -3.429688 4.3125 -3.265625 C 4.476562 -3.109375 4.5625 -2.914062 4.5625 -2.6875 L 4 -2.6875 C 4 -2.757812 3.972656 -2.820312 3.921875 -2.875 C 3.867188 -2.9375 3.804688 -2.96875 3.734375 -2.96875 L 1.203125 -2.96875 C 1.128906 -2.96875 1.0625 -2.9375 1 -2.875 C 0.945312 -2.820312 0.921875 -2.757812 0.921875 -2.6875 L 0.921875 -2.328125 C 0.921875 -2.242188 0.945312 -2.175781 1 -2.125 C 1.0625 -2.070312 1.128906 -2.046875 1.203125 -2.046875 L 3.734375 -2.046875 C 3.960938 -2.046875 4.15625 -1.960938 4.3125 -1.796875 C 4.476562 -1.628906 4.5625 -1.429688 4.5625 -1.203125 L 4.5625 -0.84375 C 4.5625 -0.601562 4.476562 -0.398438 4.3125 -0.234375 C 4.15625 -0.078125 3.960938 0 3.734375 0 Z M 3.734375 0 "/></g></g></g><g fill="#ffffff" fill-opacity="1"><g transform="translate(7.479902, 30.890139)"><g><path d="M 4.6875 0 L 4.3125 0 L 1.046875 -2.65625 L 1.046875 0 L 0.484375 0 L 0.484375 -3.515625 L 0.875 -3.515625 L 4.125 -0.875 L 4.125 -3.515625 L 4.6875 -3.515625 Z M 4.6875 0 "/></g></g></g><g fill="#ffffff" fill-opacity="1"><g transform="translate(13.225278, 30.890139)"><g><path d="M 5.140625 0 L 4.453125 0 L 3.9375 -0.765625 L 1.265625 -0.765625 L 0.75 0 L 0.078125 0 L 2.453125 -3.515625 L 2.75 -3.515625 Z M 3.5625 -1.328125 L 2.609375 -2.75 L 1.640625 -1.328125 Z M 3.5625 -1.328125 "/></g></g></g><g fill="#ffffff" fill-opacity="1"><g transform="translate(19.000164, 30.890139)"><g><path d="M 2.75 0 L 2.453125 0 L 0.078125 -3.515625 L 0.75 -3.515625 L 2.609375 -0.78125 L 4.453125 -3.515625 L 5.140625 -3.515625 Z M 2.75 0 "/></g></g></g><g fill="#ffffff" fill-opacity="1"><g transform="translate(24.779968, 30.890139)"><g><path d="M 1.046875 0 L 1.046875 -3.515625 L 0.484375 -3.515625 L 0.484375 0 Z M 1.046875 0 "/></g></g></g><g fill="#ffffff" fill-opacity="1"><g transform="translate(26.883346, 30.890139)"><g><path d="M 3.734375 0 L 1.203125 0 C 0.972656 0 0.773438 -0.078125 0.609375 -0.234375 C 0.453125 -0.398438 0.375 -0.601562 0.375 -0.84375 L 0.921875 -0.84375 C 0.921875 -0.757812 0.945312 -0.691406 1 -0.640625 C 1.0625 -0.585938 1.128906 -0.5625 1.203125 -0.5625 L 3.734375 -0.5625 C 3.804688 -0.5625 3.867188 -0.585938 3.921875 -0.640625 C 3.972656 -0.691406 4 -0.757812 4 -0.84375 L 4 -1.203125 C 4 -1.273438 3.972656 -1.335938 3.921875 -1.390625 C 3.867188 -1.453125 3.804688 -1.484375 3.734375 -1.484375 L 1.203125 -1.484375 C 0.972656 -1.484375 0.773438 -1.5625 0.609375 -1.71875 C 0.453125 -1.882812 0.375 -2.085938 0.375 -2.328125 L 0.375 -2.6875 C 0.375 -2.914062 0.453125 -3.109375 0.609375 -3.265625 C 0.773438 -3.429688 0.972656 -3.515625 1.203125 -3.515625 L 3.734375 -3.515625 C 3.960938 -3.515625 4.15625 -3.429688 4.3125 -3.265625 C 4.476562 -3.109375 4.5625 -2.914062 4.5625 -2.6875 L 4 -2.6875 C 4 -2.757812 3.972656 -2.820312 3.921875 -2.875 C 3.867188 -2.9375 3.804688 -2.96875 3.734375 -2.96875 L 1.203125 -2.96875 C 1.128906 -2.96875 1.0625 -2.9375 1 -2.875 C 0.945312 -2.820312 0.921875 -2.757812 0.921875 -2.6875 L 0.921875 -2.328125 C 0.921875 -2.242188 0.945312 -2.175781 1 -2.125 C 1.0625 -2.070312 1.128906 -2.046875 1.203125 -2.046875 L 3.734375 -2.046875 C 3.960938 -2.046875 4.15625 -1.960938 4.3125 -1.796875 C 4.476562 -1.628906 4.5625 -1.429688 4.5625 -1.203125 L 4.5625 -0.84375 C 4.5625 -0.601562 4.476562 -0.398438 4.3125 -0.234375 C 4.15625 -0.078125 3.960938 0 3.734375 0 Z M 3.734375 0 "/></g></g></g></svg>