<svg xmlns="http://www.w3.org/2000/svg" xmlns:xlink="http://www.w3.org/1999/xlink" width="50" zoomAndPan="magnify" viewBox="0 0 37.5 37.499999" height="50" preserveAspectRatio="xMidYMid meet" version="1.0"><defs><clipPath id="117f362016"><path d="M 1.273438 1.273438 L 36.523438 1.273438 L 36.523438 36.523438 L 1.273438 36.523438 Z M 1.273438 1.273438 " clip-rule="nonzero"/></clipPath></defs><g clip-path="url(#117f362016)"><path fill="#5f6977" d="M 18.886719 1.285156 C 9.167969 1.285156 1.265625 9.191406 1.265625 18.90625 C 1.265625 28.621094 9.167969 36.527344 18.886719 36.527344 C 28.601562 36.527344 36.503906 28.621094 36.503906 18.90625 C 36.503906 9.191406 28.601562 1.285156 18.886719 1.285156 Z M 18.886719 34.789062 C 10.128906 34.789062 3.003906 27.664062 3.003906 18.90625 C 3.003906 10.148438 10.128906 3.023438 18.886719 3.023438 C 27.644531 3.023438 34.769531 10.148438 34.769531 18.90625 C 34.769531 27.664062 27.644531 34.789062 18.886719 34.789062 Z M 18.886719 34.789062 " fill-opacity="1" fill-rule="nonzero"/></g><path fill="#5f6977" d="M 24.4375 17.265625 L 24.4375 14.398438 C 24.4375 11.335938 21.945312 8.847656 18.886719 8.847656 C 15.824219 8.847656 13.335938 11.335938 13.335938 14.398438 L 13.335938 17.265625 C 12.441406 17.453125 11.769531 18.246094 11.769531 19.195312 L 11.769531 25.550781 C 11.769531 26.636719 12.652344 27.519531 13.738281 27.519531 L 24.03125 27.519531 C 25.121094 27.519531 26 26.636719 26 25.550781 L 26 19.195312 C 26 18.246094 25.328125 17.453125 24.4375 17.265625 Z M 18.886719 11.742188 C 20.351562 11.742188 21.539062 12.933594 21.539062 14.398438 L 21.539062 17.226562 L 16.230469 17.226562 L 16.230469 14.398438 C 16.230469 12.933594 17.421875 11.742188 18.886719 11.742188 Z M 19.753906 23.4375 L 19.753906 25.375 L 18.015625 25.375 L 18.015625 23.4375 C 17.496094 23.136719 17.144531 22.578125 17.144531 21.929688 C 17.144531 20.96875 17.921875 20.1875 18.886719 20.1875 C 19.847656 20.1875 20.628906 20.96875 20.628906 21.929688 C 20.628906 22.578125 20.277344 23.136719 19.753906 23.4375 Z M 19.753906 23.4375 " fill-opacity="1" fill-rule="nonzero"/></svg>