<svg xmlns="http://www.w3.org/2000/svg" xmlns:xlink="http://www.w3.org/1999/xlink" width="50" zoomAndPan="magnify" viewBox="0 0 37.5 37.499999" height="50" preserveAspectRatio="xMidYMid meet" version="1.0"><defs><clipPath id="3de67a5ba7"><path d="M 1.050781 1.050781 L 36.300781 1.050781 L 36.300781 36.300781 L 1.050781 36.300781 Z M 1.050781 1.050781 " clip-rule="nonzero"/></clipPath></defs><g clip-path="url(#3de67a5ba7)"><path fill="#7a7df1" d="M 18.675781 1.050781 C 8.941406 1.050781 1.050781 8.941406 1.050781 18.675781 C 1.050781 28.410156 8.941406 36.300781 18.675781 36.300781 C 28.410156 36.300781 36.300781 28.410156 36.300781 18.675781 C 36.300781 8.941406 28.410156 1.050781 18.675781 1.050781 Z M 23.566406 12.714844 L 21.792969 12.714844 C 20.402344 12.714844 20.132812 13.375 20.132812 14.34375 L 20.132812 16.484375 L 23.449219 16.484375 L 23.019531 19.832031 L 20.132812 19.832031 L 20.132812 28.421875 L 16.675781 28.421875 L 16.675781 19.832031 L 13.785156 19.832031 L 13.785156 16.484375 L 16.675781 16.484375 L 16.675781 14.011719 C 16.675781 11.148438 18.425781 9.585938 20.984375 9.585938 C 22.207031 9.585938 23.261719 9.675781 23.566406 9.71875 Z M 23.566406 12.714844 " fill-opacity="1" fill-rule="nonzero"/></g></svg>