<svg xmlns="http://www.w3.org/2000/svg" xmlns:xlink="http://www.w3.org/1999/xlink" width="50" zoomAndPan="magnify" viewBox="0 0 37.5 37.499999" height="50" preserveAspectRatio="xMidYMid meet" version="1.0"><defs><clipPath id="3ad2ed8300"><path d="M 0 0 L 37.007812 0 L 37.007812 37.007812 L 0 37.007812 Z M 0 0 " clip-rule="nonzero"/></clipPath><clipPath id="46e58842ef"><path d="M 1.050781 1.050781 L 36.300781 1.050781 L 36.300781 36.300781 L 1.050781 36.300781 Z M 1.050781 1.050781 " clip-rule="nonzero"/></clipPath></defs><g clip-path="url(#3ad2ed8300)"><path fill="#ffffff" d="M 24.101562 27.421875 L 33.289062 36.601562 C 34.199219 37.511719 35.675781 37.511719 36.582031 36.601562 C 37.492188 35.691406 37.492188 34.214844 36.582031 33.308594 L 27.40625 24.132812 C 29.25 21.621094 30.34375 18.519531 30.34375 15.164062 C 30.34375 6.792969 23.546875 0 15.179688 0 C 6.808594 0 0.015625 6.792969 0.015625 15.164062 C 0.015625 23.535156 6.808594 30.328125 15.179688 30.328125 C 18.511719 30.328125 21.597656 29.25 24.101562 27.421875 Z M 15.179688 4.660156 C 20.976562 4.660156 25.683594 9.367188 25.683594 15.164062 C 25.683594 20.960938 20.976562 25.667969 15.179688 25.667969 C 9.382812 25.667969 4.675781 20.960938 4.675781 15.164062 C 4.675781 9.367188 9.382812 4.660156 15.179688 4.660156 Z M 15.179688 4.660156 " fill-opacity="1" fill-rule="evenodd"/></g><g clip-path="url(#46e58842ef)"><path fill="#5f6977" d="M 18.675781 1.050781 C 8.957031 1.050781 1.050781 8.957031 1.050781 18.675781 C 1.050781 28.394531 8.957031 36.300781 18.675781 36.300781 C 28.394531 36.300781 36.300781 28.394531 36.300781 18.675781 C 36.300781 8.957031 28.394531 1.050781 18.675781 1.050781 Z M 8.777344 30.484375 C 8.941406 25.160156 13.3125 20.878906 18.675781 20.878906 C 24.039062 20.878906 28.410156 25.160156 28.574219 30.484375 C 25.890625 32.734375 22.441406 34.097656 18.675781 34.097656 C 14.910156 34.097656 11.457031 32.734375 8.777344 30.484375 Z M 13.167969 13.167969 C 13.167969 10.128906 15.636719 7.660156 18.675781 7.660156 C 21.710938 7.660156 24.183594 10.128906 24.183594 13.167969 C 24.183594 16.203125 21.710938 18.675781 18.675781 18.675781 C 15.636719 18.675781 13.167969 16.203125 13.167969 13.167969 Z M 30.566406 28.484375 C 29.769531 24.367188 26.878906 20.996094 23.054688 19.503906 C 25.0625 18.113281 26.386719 15.792969 26.386719 13.167969 C 26.386719 8.917969 22.925781 5.457031 18.675781 5.457031 C 14.425781 5.457031 10.964844 8.917969 10.964844 13.167969 C 10.964844 15.792969 12.285156 18.113281 14.296875 19.507812 C 10.46875 20.996094 7.582031 24.367188 6.785156 28.484375 C 4.578125 25.816406 3.253906 22.398438 3.253906 18.675781 C 3.253906 10.171875 10.171875 3.253906 18.675781 3.253906 C 27.179688 3.253906 34.097656 10.171875 34.097656 18.675781 C 34.097656 22.398438 32.769531 25.816406 30.566406 28.484375 Z M 30.566406 28.484375 " fill-opacity="1" fill-rule="nonzero"/></g></svg>